{
    "asset" : {
        "generator" : "Khronos glTF Blender I/O v1.3.48",
        "version" : "2.0"
    },
    "scene" : 0,
    "scenes" : [
        {
            "name" : "Scene",
            "nodes" : [
                3,
                7,
                11,
                12,
                13
            ]
        }
    ],
    "nodes" : [
        {
            "name" : "Node_3"
        },
        {
            "children" : [
                0
            ],
            "name" : "a366978fdd564d359a25ec4aab2a25e0.obj.cleaner.gles",
            "translation" : [
                -22.331600189208984,
                -18.11590003967285,
                0
            ]
        },
        {
            "children" : [
                1
            ],
            "name" : "RootNode (model correction matrix)"
        },
        {
            "children" : [
                2
            ],
            "name" : "RootNode (gltf orientation matrix)",
            "rotation" : [
                -0.7071068286895752,
                0,
                0,
                0.7071068286895752
            ],
            "scale" : [
                0.3225259780883789,
                0.3225259780883789,
                0.3225259780883789
            ],
            "translation" : [
                0,
                12.766955375671387,
                0
            ]
        },
        {
            "name" : "Node_3.001"
        },
        {
            "children" : [
                4
            ],
            "name" : "a366978fdd564d359a25ec4aab2a25e0.obj.cleaner.gles.001",
            "translation" : [
                -22.331600189208984,
                -18.11590003967285,
                0
            ]
        },
        {
            "children" : [
                5
            ],
            "name" : "RootNode (model correction matrix).001"
        },
        {
            "children" : [
                6
            ],
            "name" : "RootNode (gltf orientation matrix).001",
            "rotation" : [
                -0.7071068286895752,
                0,
                0,
                0.7071068286895752
            ],
            "scale" : [
                0.3225259780883789,
                0.3225259780883789,
                0.3225259780883789
            ],
            "translation" : [
                0,
                12.766955375671387,
                0
            ]
        },
        {
            "name" : "Node_3.002"
        },
        {
            "children" : [
                8
            ],
            "name" : "a366978fdd564d359a25ec4aab2a25e0.obj.cleaner.gles.002",
            "translation" : [
                -22.331600189208984,
                -18.11590003967285,
                0
            ]
        },
        {
            "children" : [
                9
            ],
            "name" : "RootNode (model correction matrix).002"
        },
        {
            "children" : [
                10
            ],
            "name" : "RootNode (gltf orientation matrix).002",
            "rotation" : [
                -0.7071068286895752,
                0,
                0,
                0.7071068286895752
            ],
            "scale" : [
                0.3225259780883789,
                0.3225259780883789,
                0.24720917642116547
            ],
            "translation" : [
                16.25494956970215,
                12.766955375671387,
                0
            ]
        },
        {
            "mesh" : 0,
            "name" : "Mesh_0.004",
            "rotation" : [
                -0.6714984178543091,
                0.15919718146324158,
                0.1773642897605896,
                0.7016324400901794
            ],
            "scale" : [
                0.1574258953332901,
                0.1574258804321289,
                0.1574259102344513
            ],
            "translation" : [
                2.221829891204834,
                8.280305862426758,
                -9.714147567749023
            ]
        },
        {
            "mesh" : 1,
            "name" : "Cube",
            "scale" : [
                9.95032024383545,
                7.965898513793945,
                9.732183456420898
            ],
            "translation" : [
                0.6323837041854858,
                0,
                2.121772289276123
            ]
        }
    ],
    "materials" : [
        {
            "doubleSided" : true,
            "emissiveFactor" : [
                0,
                0,
                0
            ],
            "name" : "crate_texture.004",
            "pbrMetallicRoughness" : {
                "baseColorTexture" : {
                    "index" : 0,
                    "texCoord" : 0
                },
                "metallicFactor" : 0,
                "roughnessFactor" : 0.9334368705749512
            }
        },
        {
            "doubleSided" : true,
            "emissiveFactor" : [
                0,
                0,
                0
            ],
            "name" : "crate_texture.001",
            "pbrMetallicRoughness" : {
                "baseColorTexture" : {
                    "index" : 1,
                    "texCoord" : 0
                },
                "metallicFactor" : 0,
                "roughnessFactor" : 0.9334368705749512
            }
        },
        {
            "doubleSided" : true,
            "emissiveFactor" : [
                0,
                0,
                0
            ],
            "name" : "crate_texture.002",
            "pbrMetallicRoughness" : {
                "baseColorTexture" : {
                    "index" : 2,
                    "texCoord" : 0
                },
                "metallicFactor" : 0,
                "roughnessFactor" : 0.9334368705749512
            }
        },
        {
            "doubleSided" : true,
            "emissiveFactor" : [
                0,
                0,
                0
            ],
            "name" : "crate_texture",
            "pbrMetallicRoughness" : {
                "baseColorTexture" : {
                    "index" : 3,
                    "texCoord" : 0
                },
                "metallicFactor" : 0,
                "roughnessFactor" : 0.9334368705749512
            }
        },
        {
            "doubleSided" : true,
            "emissiveFactor" : [
                0,
                0,
                0
            ],
            "name" : "Material.001",
            "pbrMetallicRoughness" : {
                "baseColorTexture" : {
                    "index" : 4,
                    "texCoord" : 0
                },
                "metallicFactor" : 0,
                "roughnessFactor" : 0.5
            }
        }
    ],
    "meshes" : [
        {
            "name" : "Mesh_0.005",
            "primitives" : [
                {
                    "attributes" : {
                        "POSITION" : 0,
                        "NORMAL" : 1,
                        "TEXCOORD_0" : 2
                    },
                    "indices" : 3,
                    "material" : 0
                },
                {
                    "attributes" : {
                        "POSITION" : 4,
                        "NORMAL" : 5,
                        "TEXCOORD_0" : 6
                    },
                    "indices" : 7,
                    "material" : 1
                },
                {
                    "attributes" : {
                        "POSITION" : 8,
                        "NORMAL" : 9,
                        "TEXCOORD_0" : 10
                    },
                    "indices" : 7,
                    "material" : 2
                },
                {
                    "attributes" : {
                        "POSITION" : 11,
                        "NORMAL" : 12,
                        "TEXCOORD_0" : 13
                    },
                    "indices" : 14,
                    "material" : 3
                }
            ]
        },
        {
            "name" : "Cube.001",
            "primitives" : [
                {
                    "attributes" : {
                        "POSITION" : 15,
                        "NORMAL" : 16,
                        "TEXCOORD_0" : 17
                    },
                    "indices" : 18,
                    "material" : 4
                }
            ]
        }
    ],
    "textures" : [
        {
            "source" : 0
        },
        {
            "source" : 0
        },
        {
            "source" : 0
        },
        {
            "source" : 0
        },
        {
            "source" : 1
        }
    ],
    "images" : [
        {
            "bufferView" : 4,
            "mimeType" : "image/jpeg",
            "name" : "crate_texture_baseColor"
        },
        {
            "bufferView" : 20,
            "mimeType" : "image/jpeg",
            "name" : "plywoodtexture"
        }
    ],
    "accessors" : [
        {
            "bufferView" : 0,
            "componentType" : 5126,
            "count" : 24,
            "max" : [
                36.47489929199219,
                36.474998474121094,
                36.474998474121094
            ],
            "min" : [
                0,
                0,
                0
            ],
            "type" : "VEC3"
        },
        {
            "bufferView" : 1,
            "componentType" : 5126,
            "count" : 24,
            "type" : "VEC3"
        },
        {
            "bufferView" : 2,
            "componentType" : 5126,
            "count" : 24,
            "type" : "VEC2"
        },
        {
            "bufferView" : 3,
            "componentType" : 5123,
            "count" : 36,
            "type" : "SCALAR"
        },
        {
            "bufferView" : 5,
            "componentType" : 5126,
            "count" : 36,
            "max" : [
                59.12958908081055,
                30.443382263183594,
                2.2891502380371094
            ],
            "min" : [
                -9.2343168258667,
                -37.97333908081055,
                -42.840023040771484
            ],
            "type" : "VEC3"
        },
        {
            "bufferView" : 6,
            "componentType" : 5126,
            "count" : 36,
            "type" : "VEC3"
        },
        {
            "bufferView" : 7,
            "componentType" : 5126,
            "count" : 36,
            "type" : "VEC2"
        },
        {
            "bufferView" : 8,
            "componentType" : 5123,
            "count" : 36,
            "type" : "SCALAR"
        },
        {
            "bufferView" : 9,
            "componentType" : 5126,
            "count" : 36,
            "max" : [
                16.29232406616211,
                -2.386280059814453,
                68.4091796875
            ],
            "min" : [
                -47.51854705810547,
                -65.17322540283203,
                14.878559112548828
            ],
            "type" : "VEC3"
        },
        {
            "bufferView" : 10,
            "componentType" : 5126,
            "count" : 36,
            "type" : "VEC3"
        },
        {
            "bufferView" : 11,
            "componentType" : 5126,
            "count" : 36,
            "type" : "VEC2"
        },
        {
            "bufferView" : 12,
            "componentType" : 5126,
            "count" : 108,
            "max" : [
                7.298503875732422,
                57.16034698486328,
                70.2779312133789
            ],
            "min" : [
                -79.3626937866211,
                -80.69325256347656,
                -41.66175079345703
            ],
            "type" : "VEC3"
        },
        {
            "bufferView" : 13,
            "componentType" : 5126,
            "count" : 108,
            "type" : "VEC3"
        },
        {
            "bufferView" : 14,
            "componentType" : 5126,
            "count" : 108,
            "type" : "VEC2"
        },
        {
            "bufferView" : 15,
            "componentType" : 5123,
            "count" : 108,
            "type" : "SCALAR"
        },
        {
            "bufferView" : 16,
            "componentType" : 5126,
            "count" : 408,
            "max" : [
                1.0142308473587036,
                0.24454998970031738,
                0.10957545042037964
            ],
            "min" : [
                -1.0103187561035156,
                0.00020754337310791016,
                -1.9504430294036865
            ],
            "type" : "VEC3"
        },
        {
            "bufferView" : 17,
            "componentType" : 5126,
            "count" : 408,
            "type" : "VEC3"
        },
        {
            "bufferView" : 18,
            "componentType" : 5126,
            "count" : 408,
            "type" : "VEC2"
        },
        {
            "bufferView" : 19,
            "componentType" : 5123,
            "count" : 612,
            "type" : "SCALAR"
        }
    ],
    "bufferViews" : [
        {
            "buffer" : 0,
            "byteLength" : 288,
            "byteOffset" : 0
        },
        {
            "buffer" : 0,
            "byteLength" : 288,
            "byteOffset" : 288
        },
        {
            "buffer" : 0,
            "byteLength" : 192,
            "byteOffset" : 576
        },
        {
            "buffer" : 0,
            "byteLength" : 72,
            "byteOffset" : 768
        },
        {
            "buffer" : 0,
            "byteLength" : 604840,
            "byteOffset" : 840
        },
        {
            "buffer" : 0,
            "byteLength" : 432,
            "byteOffset" : 605680
        },
        {
            "buffer" : 0,
            "byteLength" : 432,
            "byteOffset" : 606112
        },
        {
            "buffer" : 0,
            "byteLength" : 288,
            "byteOffset" : 606544
        },
        {
            "buffer" : 0,
            "byteLength" : 72,
            "byteOffset" : 606832
        },
        {
            "buffer" : 0,
            "byteLength" : 432,
            "byteOffset" : 606904
        },
        {
            "buffer" : 0,
            "byteLength" : 432,
            "byteOffset" : 607336
        },
        {
            "buffer" : 0,
            "byteLength" : 288,
            "byteOffset" : 607768
        },
        {
            "buffer" : 0,
            "byteLength" : 1296,
            "byteOffset" : 608056
        },
        {
            "buffer" : 0,
            "byteLength" : 1296,
            "byteOffset" : 609352
        },
        {
            "buffer" : 0,
            "byteLength" : 864,
            "byteOffset" : 610648
        },
        {
            "buffer" : 0,
            "byteLength" : 216,
            "byteOffset" : 611512
        },
        {
            "buffer" : 0,
            "byteLength" : 4896,
            "byteOffset" : 611728
        },
        {
            "buffer" : 0,
            "byteLength" : 4896,
            "byteOffset" : 616624
        },
        {
            "buffer" : 0,
            "byteLength" : 3264,
            "byteOffset" : 621520
        },
        {
            "buffer" : 0,
            "byteLength" : 1224,
            "byteOffset" : 624784
        },
        {
            "buffer" : 0,
            "byteLength" : 503276,
            "byteOffset" : 626008
        }
    ],
    "buffers" : [
        {
            "byteLength" : 1129284,
            "uri" : "data:application/octet-stream;base64,"
        }
    ]
}
