{
    "asset" : {
        "generator" : "Khronos glTF Blender I/O v1.3.48",
        "version" : "2.0"
    },
    "scene" : 0,
    "scenes" : [
        {
            "name" : "Scene",
            "nodes" : [
                12
            ]
        }
    ],
    "nodes" : [
        {
            "name" : "Node_12"
        },
        {
            "children" : [
                0
            ],
            "name" : "Camera",
            "rotation" : [
                0.06485924869775772,
                -0.5402781963348389,
                -0.10000839829444885,
                0.8330012559890747
            ],
            "scale" : [
                100.00000762939453,
                99.99999237060547,
                100.00000762939453
            ],
            "translation" : [
                -69.67630767822266,
                39.36724853515625,
                -173.62100219726562
            ]
        },
        {
            "mesh" : 0,
            "name" : "Disk_Disk_0"
        },
        {
            "children" : [
                2
            ],
            "name" : "Disk",
            "rotation" : [
                -0.7071068286895752,
                0,
                0,
                0.7071067094802856
            ],
            "scale" : [
                0.2940295934677124,
                0.005688103381544352,
                0.2940295934677124
            ]
        },
        {
            "name" : "Node_10"
        },
        {
            "children" : [
                4
            ],
            "name" : "Node_9",
            "rotation" : [
                0.7071068286895752,
                0,
                0,
                0.7071068286895752
            ]
        },
        {
            "children" : [
                5
            ],
            "name" : "Lamp",
            "rotation" : [
                0.2721714377403259,
                -0.570947527885437,
                0.16907580196857452,
                0.7558803558349609
            ],
            "scale" : [
                100.00000762939453,
                100,
                100
            ],
            "translation" : [
                -407.6245422363281,
                590.38623046875,
                100.54539489746094
            ]
        },
        {
            "mesh" : 1,
            "name" : "Trava_Lock_0"
        },
        {
            "children" : [
                7
            ],
            "name" : "Trava",
            "rotation" : [
                -0.7071068286895752,
                0,
                0,
                0.7071067094802856
            ],
            "scale" : [
                0.06617140769958496,
                0.04491836950182915,
                0.06617140769958496
            ],
            "translation" : [
                -2.2208003997802734,
                22.852773666381836,
                -0.001109205186367035
            ]
        },
        {
            "children" : [
                1,
                3,
                6,
                8
            ],
            "name" : "RootNode"
        },
        {
            "children" : [
                9
            ],
            "name" : "65521384a6b7485b9a733d25f94042d7.fbx",
            "rotation" : [
                0.7071068286895752,
                0,
                0,
                0.7071068286895752
            ]
        },
        {
            "children" : [
                10
            ],
            "name" : "RootNode (model correction matrix)"
        },
        {
            "children" : [
                11
            ],
            "name" : "RootNode (gltf orientation matrix)",
            "rotation" : [
                -0.7071068286895752,
                0,
                0,
                0.7071068286895752
            ],
            "scale" : [
                0.03525996953248978,
                0.03525995463132858,
                0.03525995463132858
            ]
        }
    ],
    "materials" : [
        {
            "doubleSided" : true,
            "emissiveFactor" : [
                0,
                0,
                0
            ],
            "name" : "Disk",
            "pbrMetallicRoughness" : {
                "baseColorTexture" : {
                    "index" : 0,
                    "texCoord" : 0
                },
                "metallicFactor" : 0,
                "roughnessFactor" : 0.388528972864151
            }
        },
        {
            "doubleSided" : true,
            "emissiveFactor" : [
                0,
                0,
                0
            ],
            "name" : "Lock",
            "pbrMetallicRoughness" : {
                "baseColorTexture" : {
                    "index" : 1,
                    "texCoord" : 0
                },
                "metallicFactor" : 0.4346417784690857,
                "roughnessFactor" : 0
            }
        }
    ],
    "meshes" : [
        {
            "name" : "Disk_Disk_0",
            "primitives" : [
                {
                    "attributes" : {
                        "POSITION" : 0,
                        "NORMAL" : 1,
                        "TEXCOORD_0" : 2
                    },
                    "indices" : 3,
                    "material" : 0
                }
            ]
        },
        {
            "name" : "Trava_Lock_0",
            "primitives" : [
                {
                    "attributes" : {
                        "POSITION" : 4,
                        "NORMAL" : 5,
                        "TEXCOORD_0" : 6
                    },
                    "indices" : 7,
                    "material" : 1
                }
            ]
        }
    ],
    "textures" : [
        {
            "source" : 0
        },
        {
            "source" : 1
        }
    ],
    "images" : [
        {
            "bufferView" : 4,
            "mimeType" : "image/png",
            "name" : "Disk_baseColor"
        },
        {
            "bufferView" : 9,
            "mimeType" : "image/png",
            "name" : "Lock_baseColor"
        }
    ],
    "accessors" : [
        {
            "bufferView" : 0,
            "componentType" : 5126,
            "count" : 1549,
            "max" : [
                100.00003814697266,
                100.00003814697266,
                104.91888427734375
            ],
            "min" : [
                -100.00004577636719,
                -100.00001525878906,
                -100.00006103515625
            ],
            "type" : "VEC3"
        },
        {
            "bufferView" : 1,
            "componentType" : 5126,
            "count" : 1549,
            "type" : "VEC3"
        },
        {
            "bufferView" : 2,
            "componentType" : 5126,
            "count" : 1549,
            "type" : "VEC2"
        },
        {
            "bufferView" : 3,
            "componentType" : 5123,
            "count" : 1620,
            "type" : "SCALAR"
        },
        {
            "bufferView" : 5,
            "componentType" : 5126,
            "count" : 338,
            "max" : [
                256.6053771972656,
                19.617895126342773,
                124.92131042480469
            ],
            "min" : [
                -211.2982940673828,
                -19.61786651611328,
                -192.65325927734375
            ],
            "type" : "VEC3"
        },
        {
            "bufferView" : 6,
            "componentType" : 5126,
            "count" : 338,
            "type" : "VEC3"
        },
        {
            "bufferView" : 7,
            "componentType" : 5126,
            "count" : 338,
            "type" : "VEC2"
        },
        {
            "bufferView" : 8,
            "componentType" : 5123,
            "count" : 504,
            "type" : "SCALAR"
        }
    ],
    "bufferViews" : [
        {
            "buffer" : 0,
            "byteLength" : 18588,
            "byteOffset" : 0
        },
        {
            "buffer" : 0,
            "byteLength" : 18588,
            "byteOffset" : 18588
        },
        {
            "buffer" : 0,
            "byteLength" : 12392,
            "byteOffset" : 37176
        },
        {
            "buffer" : 0,
            "byteLength" : 3240,
            "byteOffset" : 49568
        },
        {
            "buffer" : 0,
            "byteLength" : 28618,
            "byteOffset" : 52808
        },
        {
            "buffer" : 0,
            "byteLength" : 4056,
            "byteOffset" : 81428
        },
        {
            "buffer" : 0,
            "byteLength" : 4056,
            "byteOffset" : 85484
        },
        {
            "buffer" : 0,
            "byteLength" : 2704,
            "byteOffset" : 89540
        },
        {
            "buffer" : 0,
            "byteLength" : 1008,
            "byteOffset" : 92244
        },
        {
            "buffer" : 0,
            "byteLength" : 14593,
            "byteOffset" : 93252
        }
    ],
    "buffers" : [
        {
            "byteLength" : 107848,
            "uri" : "data:application/octet-stream;base64,"
        }
    ]
}
