{
    "asset" : {
        "generator" : "Khronos glTF Blender I/O v1.3.48",
        "version" : "2.0"
    },
    "scene" : 0,
    "scenes" : [
        {
            "name" : "Scene",
            "nodes" : [
                13
            ]
        }
    ],
    "nodes" : [
        {
            "mesh" : 0,
            "name" : "DJI_Spark_LowPol_Material #50_0"
        },
        {
            "mesh" : 1,
            "name" : "DJI_Spark_LowPol_Material #51_0"
        },
        {
            "mesh" : 2,
            "name" : "DJI_Spark_LowPol_Material #52_0"
        },
        {
            "mesh" : 3,
            "name" : "DJI_Spark_LowPol_Material #53_0"
        },
        {
            "mesh" : 4,
            "name" : "DJI_Spark_LowPol_Material #54_0"
        },
        {
            "mesh" : 5,
            "name" : "DJI_Spark_LowPol_Material #61_0"
        },
        {
            "mesh" : 6,
            "name" : "DJI_Spark_LowPol_Material #62_0"
        },
        {
            "mesh" : 7,
            "name" : "DJI_Spark_LowPol_Material #63_0"
        },
        {
            "mesh" : 8,
            "name" : "DJI_Spark_LowPol_Material #64_0"
        },
        {
            "children" : [
                0,
                1,
                2,
                3,
                4,
                5,
                6,
                7,
                8
            ],
            "name" : "DJI_Spark_LowPol",
            "rotation" : [
                -0.7071068286895752,
                0,
                0,
                0.7071068286895752
            ],
            "translation" : [
                0.6187430620193481,
                30.459815979003906,
                0
            ]
        },
        {
            "children" : [
                9
            ],
            "name" : "RootNode"
        },
        {
            "children" : [
                10
            ],
            "name" : "d51865599e4d499dadae31c5d2944b5f.fbx",
            "rotation" : [
                0.7071068286895752,
                0,
                0,
                0.7071068286895752
            ]
        },
        {
            "children" : [
                11
            ],
            "name" : "RootNode (model correction matrix)"
        },
        {
            "children" : [
                12
            ],
            "name" : "RootNode (gltf orientation matrix)",
            "rotation" : [
                -0.7071068286895752,
                0,
                0,
                0.7071068286895752
            ]
        }
    ],
    "materials" : [
        {
            "emissiveFactor" : [
                0,
                0,
                0
            ],
            "name" : "Material_50",
            "pbrMetallicRoughness" : {
                "baseColorFactor" : [
                    0.4607844948768616,
                    0.4607844948768616,
                    0.4607844948768616,
                    1
                ],
                "metallicFactor" : 0,
                "roughnessFactor" : 0.8929713368415833
            }
        },
        {
            "doubleSided" : true,
            "emissiveFactor" : [
                0,
                0,
                0
            ],
            "name" : "Material_51",
            "pbrMetallicRoughness" : {
                "baseColorFactor" : [
                    0.03890107944607735,
                    0.03890107944607735,
                    0.03890107944607735,
                    1
                ],
                "metallicFactor" : 0,
                "roughnessFactor" : 0.8929713368415833
            }
        },
        {
            "doubleSided" : true,
            "emissiveFactor" : [
                0.01773197017610073,
                1,
                0
            ],
            "name" : "Material_52",
            "pbrMetallicRoughness" : {
                "baseColorFactor" : [
                    0.024031858891248703,
                    1,
                    0,
                    1
                ],
                "metallicFactor" : 0,
                "roughnessFactor" : 0.8929713368415833
            }
        },
        {
            "doubleSided" : true,
            "emissiveFactor" : [
                1,
                0,
                0
            ],
            "name" : "Material_53",
            "pbrMetallicRoughness" : {
                "baseColorFactor" : [
                    1,
                    0,
                    0,
                    1
                ],
                "metallicFactor" : 0,
                "roughnessFactor" : 0.8929713368415833
            }
        },
        {
            "doubleSided" : true,
            "emissiveFactor" : [
                0,
                0,
                0
            ],
            "name" : "Material_54",
            "pbrMetallicRoughness" : {
                "baseColorFactor" : [
                    0.005245693027973175,
                    0.005245693027973175,
                    0.005245693027973175,
                    1
                ],
                "metallicFactor" : 0,
                "roughnessFactor" : 0.8929713368415833
            }
        },
        {
            "emissiveFactor" : [
                0,
                0,
                0
            ],
            "name" : "Material_61",
            "pbrMetallicRoughness" : {
                "baseColorFactor" : [
                    0.3068137466907501,
                    0.001336060930043459,
                    0.3534478545188904,
                    1
                ],
                "metallicFactor" : 0.5,
                "roughnessFactor" : 0.5992758870124817
            }
        },
        {
            "emissiveFactor" : [
                0,
                0,
                0
            ],
            "name" : "Material_62",
            "pbrMetallicRoughness" : {
                "baseColorFactor" : [
                    0.6627449989318848,
                    0.6627449989318848,
                    0.6627449989318848,
                    1
                ],
                "metallicFactor" : 0.6907393336296082,
                "roughnessFactor" : 0.13879895210266113
            }
        },
        {
            "doubleSided" : true,
            "emissiveFactor" : [
                0,
                0,
                0
            ],
            "name" : "Material_63",
            "pbrMetallicRoughness" : {
                "baseColorFactor" : [
                    0.013535087928175926,
                    0.013535087928175926,
                    0.013535087928175926,
                    1
                ],
                "metallicFactor" : 0.32488566637039185,
                "roughnessFactor" : 0.8929713368415833
            }
        },
        {
            "emissiveFactor" : [
                0,
                0,
                0
            ],
            "name" : "Material_64",
            "pbrMetallicRoughness" : {
                "baseColorFactor" : [
                    0.016789177432656288,
                    0.016789177432656288,
                    0.016789177432656288,
                    1
                ],
                "metallicFactor" : 0.20293444395065308,
                "roughnessFactor" : 0.49828505516052246
            }
        }
    ],
    "meshes" : [
        {
            "name" : "DJI_Spark_LowPol_Material #50_0",
            "primitives" : [
                {
                    "attributes" : {
                        "POSITION" : 0,
                        "NORMAL" : 1,
                        "TEXCOORD_0" : 2
                    },
                    "indices" : 3,
                    "material" : 0
                }
            ]
        },
        {
            "name" : "DJI_Spark_LowPol_Material #51_0",
            "primitives" : [
                {
                    "attributes" : {
                        "POSITION" : 4,
                        "NORMAL" : 5,
                        "TEXCOORD_0" : 6
                    },
                    "indices" : 7,
                    "material" : 1
                }
            ]
        },
        {
            "name" : "DJI_Spark_LowPol_Material #52_0",
            "primitives" : [
                {
                    "attributes" : {
                        "POSITION" : 8,
                        "NORMAL" : 9,
                        "TEXCOORD_0" : 10
                    },
                    "indices" : 11,
                    "material" : 2
                }
            ]
        },
        {
            "name" : "DJI_Spark_LowPol_Material #53_0",
            "primitives" : [
                {
                    "attributes" : {
                        "POSITION" : 12,
                        "NORMAL" : 13,
                        "TEXCOORD_0" : 14
                    },
                    "indices" : 15,
                    "material" : 3
                }
            ]
        },
        {
            "name" : "DJI_Spark_LowPol_Material #54_0",
            "primitives" : [
                {
                    "attributes" : {
                        "POSITION" : 16,
                        "NORMAL" : 17,
                        "TEXCOORD_0" : 18
                    },
                    "indices" : 19,
                    "material" : 4
                }
            ]
        },
        {
            "name" : "DJI_Spark_LowPol_Material #61_0",
            "primitives" : [
                {
                    "attributes" : {
                        "POSITION" : 20,
                        "NORMAL" : 21,
                        "TEXCOORD_0" : 22
                    },
                    "indices" : 23,
                    "material" : 5
                }
            ]
        },
        {
            "name" : "DJI_Spark_LowPol_Material #62_0",
            "primitives" : [
                {
                    "attributes" : {
                        "POSITION" : 24,
                        "NORMAL" : 25,
                        "TEXCOORD_0" : 26
                    },
                    "indices" : 27,
                    "material" : 6
                }
            ]
        },
        {
            "name" : "DJI_Spark_LowPol_Material #63_0",
            "primitives" : [
                {
                    "attributes" : {
                        "POSITION" : 28,
                        "NORMAL" : 29,
                        "TEXCOORD_0" : 30
                    },
                    "indices" : 31,
                    "material" : 7
                }
            ]
        },
        {
            "name" : "DJI_Spark_LowPol_Material #64_0",
            "primitives" : [
                {
                    "attributes" : {
                        "POSITION" : 32,
                        "NORMAL" : 33,
                        "TEXCOORD_0" : 34
                    },
                    "indices" : 35,
                    "material" : 8
                }
            ]
        }
    ],
    "accessors" : [
        {
            "bufferView" : 0,
            "componentType" : 5126,
            "count" : 112,
            "max" : [
                23.951698303222656,
                65.95597076416016,
                21.97745704650879
            ],
            "min" : [
                -23.951698303222656,
                -63.85517883300781,
                11.901055335998535
            ],
            "type" : "VEC3"
        },
        {
            "bufferView" : 1,
            "componentType" : 5126,
            "count" : 112,
            "type" : "VEC3"
        },
        {
            "bufferView" : 2,
            "componentType" : 5126,
            "count" : 112,
            "type" : "VEC2"
        },
        {
            "bufferView" : 3,
            "componentType" : 5123,
            "count" : 378,
            "type" : "SCALAR"
        },
        {
            "bufferView" : 4,
            "componentType" : 5126,
            "count" : 2229,
            "max" : [
                72.5423812866211,
                73.51307678222656,
                15.234274864196777
            ],
            "min" : [
                -72.5423812866211,
                -72.06875610351562,
                -24.268918991088867
            ],
            "type" : "VEC3"
        },
        {
            "bufferView" : 5,
            "componentType" : 5126,
            "count" : 2229,
            "type" : "VEC3"
        },
        {
            "bufferView" : 6,
            "componentType" : 5126,
            "count" : 2229,
            "type" : "VEC2"
        },
        {
            "bufferView" : 7,
            "componentType" : 5123,
            "count" : 5082,
            "type" : "SCALAR"
        },
        {
            "bufferView" : 8,
            "componentType" : 5126,
            "count" : 104,
            "max" : [
                70.89019012451172,
                71.86088562011719,
                -6.985188007354736
            ],
            "min" : [
                -70.89019012451172,
                51.72058868408203,
                -9.126590728759766
            ],
            "type" : "VEC3"
        },
        {
            "bufferView" : 9,
            "componentType" : 5126,
            "count" : 104,
            "type" : "VEC3"
        },
        {
            "bufferView" : 10,
            "componentType" : 5126,
            "count" : 104,
            "type" : "VEC2"
        },
        {
            "bufferView" : 11,
            "componentType" : 5123,
            "count" : 288,
            "type" : "SCALAR"
        },
        {
            "bufferView" : 12,
            "componentType" : 5126,
            "count" : 104,
            "max" : [
                70.89019012451172,
                -50.27627182006836,
                -6.985188007354736
            ],
            "min" : [
                -70.89019012451172,
                -70.41656494140625,
                -9.12658977508545
            ],
            "type" : "VEC3"
        },
        {
            "bufferView" : 13,
            "componentType" : 5126,
            "count" : 104,
            "type" : "VEC3"
        },
        {
            "bufferView" : 14,
            "componentType" : 5126,
            "count" : 104,
            "type" : "VEC2"
        },
        {
            "bufferView" : 15,
            "componentType" : 5123,
            "count" : 288,
            "type" : "SCALAR"
        },
        {
            "bufferView" : 16,
            "componentType" : 5126,
            "count" : 280,
            "max" : [
                17.263166427612305,
                52.444339752197266,
                -21.389556884765625
            ],
            "min" : [
                -17.263166427612305,
                -31.65294647216797,
                -30.05733871459961
            ],
            "type" : "VEC3"
        },
        {
            "bufferView" : 17,
            "componentType" : 5126,
            "count" : 280,
            "type" : "VEC3"
        },
        {
            "bufferView" : 18,
            "componentType" : 5126,
            "count" : 280,
            "type" : "VEC2"
        },
        {
            "bufferView" : 19,
            "componentType" : 5123,
            "count" : 360,
            "type" : "SCALAR"
        },
        {
            "bufferView" : 20,
            "componentType" : 5126,
            "count" : 42,
            "max" : [
                18.648815155029297,
                -63.23390579223633,
                12.910962104797363
            ],
            "min" : [
                -18.648815155029297,
                -63.85517883300781,
                0.6494992971420288
            ],
            "type" : "VEC3"
        },
        {
            "bufferView" : 21,
            "componentType" : 5126,
            "count" : 42,
            "type" : "VEC3"
        },
        {
            "bufferView" : 22,
            "componentType" : 5126,
            "count" : 42,
            "type" : "VEC2"
        },
        {
            "bufferView" : 23,
            "componentType" : 5123,
            "count" : 72,
            "type" : "SCALAR"
        },
        {
            "bufferView" : 24,
            "componentType" : 5126,
            "count" : 864,
            "max" : [
                70.83342742919922,
                70.81674194335938,
                25.093061447143555
            ],
            "min" : [
                -70.98472595214844,
                -69.20305633544922,
                1.868271827697754
            ],
            "type" : "VEC3"
        },
        {
            "bufferView" : 25,
            "componentType" : 5126,
            "count" : 864,
            "type" : "VEC3"
        },
        {
            "bufferView" : 26,
            "componentType" : 5126,
            "count" : 864,
            "type" : "VEC2"
        },
        {
            "bufferView" : 27,
            "componentType" : 5123,
            "count" : 2160,
            "type" : "SCALAR"
        },
        {
            "bufferView" : 28,
            "componentType" : 5126,
            "count" : 263,
            "max" : [
                70.32536315917969,
                70.09947967529297,
                19.120616912841797
            ],
            "min" : [
                -70.4766616821289,
                -68.48580169677734,
                16.057323455810547
            ],
            "type" : "VEC3"
        },
        {
            "bufferView" : 29,
            "componentType" : 5126,
            "count" : 263,
            "type" : "VEC3"
        },
        {
            "bufferView" : 30,
            "componentType" : 5126,
            "count" : 263,
            "type" : "VEC2"
        },
        {
            "bufferView" : 31,
            "componentType" : 5123,
            "count" : 480,
            "type" : "SCALAR"
        },
        {
            "bufferView" : 32,
            "componentType" : 5126,
            "count" : 3680,
            "max" : [
                106.64649963378906,
                107.69912719726562,
                26.064369201660156
            ],
            "min" : [
                -106.79777526855469,
                -106.08544921875,
                17.115575790405273
            ],
            "type" : "VEC3"
        },
        {
            "bufferView" : 33,
            "componentType" : 5126,
            "count" : 3680,
            "type" : "VEC3"
        },
        {
            "bufferView" : 34,
            "componentType" : 5126,
            "count" : 3680,
            "type" : "VEC2"
        },
        {
            "bufferView" : 35,
            "componentType" : 5123,
            "count" : 7680,
            "type" : "SCALAR"
        }
    ],
    "bufferViews" : [
        {
            "buffer" : 0,
            "byteLength" : 1344,
            "byteOffset" : 0
        },
        {
            "buffer" : 0,
            "byteLength" : 1344,
            "byteOffset" : 1344
        },
        {
            "buffer" : 0,
            "byteLength" : 896,
            "byteOffset" : 2688
        },
        {
            "buffer" : 0,
            "byteLength" : 756,
            "byteOffset" : 3584
        },
        {
            "buffer" : 0,
            "byteLength" : 26748,
            "byteOffset" : 4340
        },
        {
            "buffer" : 0,
            "byteLength" : 26748,
            "byteOffset" : 31088
        },
        {
            "buffer" : 0,
            "byteLength" : 17832,
            "byteOffset" : 57836
        },
        {
            "buffer" : 0,
            "byteLength" : 10164,
            "byteOffset" : 75668
        },
        {
            "buffer" : 0,
            "byteLength" : 1248,
            "byteOffset" : 85832
        },
        {
            "buffer" : 0,
            "byteLength" : 1248,
            "byteOffset" : 87080
        },
        {
            "buffer" : 0,
            "byteLength" : 832,
            "byteOffset" : 88328
        },
        {
            "buffer" : 0,
            "byteLength" : 576,
            "byteOffset" : 89160
        },
        {
            "buffer" : 0,
            "byteLength" : 1248,
            "byteOffset" : 89736
        },
        {
            "buffer" : 0,
            "byteLength" : 1248,
            "byteOffset" : 90984
        },
        {
            "buffer" : 0,
            "byteLength" : 832,
            "byteOffset" : 92232
        },
        {
            "buffer" : 0,
            "byteLength" : 576,
            "byteOffset" : 93064
        },
        {
            "buffer" : 0,
            "byteLength" : 3360,
            "byteOffset" : 93640
        },
        {
            "buffer" : 0,
            "byteLength" : 3360,
            "byteOffset" : 97000
        },
        {
            "buffer" : 0,
            "byteLength" : 2240,
            "byteOffset" : 100360
        },
        {
            "buffer" : 0,
            "byteLength" : 720,
            "byteOffset" : 102600
        },
        {
            "buffer" : 0,
            "byteLength" : 504,
            "byteOffset" : 103320
        },
        {
            "buffer" : 0,
            "byteLength" : 504,
            "byteOffset" : 103824
        },
        {
            "buffer" : 0,
            "byteLength" : 336,
            "byteOffset" : 104328
        },
        {
            "buffer" : 0,
            "byteLength" : 144,
            "byteOffset" : 104664
        },
        {
            "buffer" : 0,
            "byteLength" : 10368,
            "byteOffset" : 104808
        },
        {
            "buffer" : 0,
            "byteLength" : 10368,
            "byteOffset" : 115176
        },
        {
            "buffer" : 0,
            "byteLength" : 6912,
            "byteOffset" : 125544
        },
        {
            "buffer" : 0,
            "byteLength" : 4320,
            "byteOffset" : 132456
        },
        {
            "buffer" : 0,
            "byteLength" : 3156,
            "byteOffset" : 136776
        },
        {
            "buffer" : 0,
            "byteLength" : 3156,
            "byteOffset" : 139932
        },
        {
            "buffer" : 0,
            "byteLength" : 2104,
            "byteOffset" : 143088
        },
        {
            "buffer" : 0,
            "byteLength" : 960,
            "byteOffset" : 145192
        },
        {
            "buffer" : 0,
            "byteLength" : 44160,
            "byteOffset" : 146152
        },
        {
            "buffer" : 0,
            "byteLength" : 44160,
            "byteOffset" : 190312
        },
        {
            "buffer" : 0,
            "byteLength" : 29440,
            "byteOffset" : 234472
        },
        {
            "buffer" : 0,
            "byteLength" : 15360,
            "byteOffset" : 263912
        }
    ],
    "buffers" : [
        {
            "byteLength" : 279272,
            "uri" : "data:application/octet-stream;base64,"
        }
    ]
}
