{
    "asset" : {
        "generator" : "Khronos glTF Blender I/O v1.3.48",
        "version" : "2.0"
    },
    "scene" : 0,
    "scenes" : [
        {
            "name" : "Scene",
            "nodes" : [
                9
            ]
        }
    ],
    "nodes" : [
        {
            "mesh" : 0,
            "name" : "Mesh_3.001"
        },
        {
            "children" : [
                0
            ],
            "name" : "Bridge_2",
            "rotation" : [
                0,
                0,
                0.10593762248754501,
                0.9943727850914001
            ],
            "scale" : [
                0.017190471291542053,
                0.012336133979260921,
                0.022270910441875458
            ],
            "translation" : [
                -0.02441585063934326,
                0.20358261466026306,
                -0.004623101558536291
            ]
        },
        {
            "name" : "Frame_0",
            "rotation" : [
                0,
                0,
                0.10593762248754501,
                0.9943727850914001
            ],
            "scale" : [
                0.017190471291542053,
                0.012336133979260921,
                0.012336133047938347
            ],
            "translation" : [
                -0.02441585063934326,
                0.20278242230415344,
                -0.004623101558536291
            ]
        },
        {
            "mesh" : 1,
            "name" : "Mesh_4.001"
        },
        {
            "children" : [
                3
            ],
            "name" : "Lens_3",
            "rotation" : [
                0,
                0,
                -0.6273614168167114,
                0.7787283062934875
            ],
            "scale" : [
                0.1042075902223587,
                0.26510748267173767,
                0.289047509431839
            ],
            "translation" : [
                -0.012767791748046875,
                0.10945713520050049,
                -0.004181244410574436
            ]
        },
        {
            "name" : "Temples_1",
            "rotation" : [
                0,
                0,
                0.10593762248754501,
                0.9943727850914001
            ],
            "scale" : [
                0.017190471291542053,
                0.012336133979260921,
                0.012336133047938347
            ],
            "translation" : [
                -0.02441585063934326,
                0.20278242230415344,
                -0.004623101558536291
            ]
        },
        {
            "children" : [
                1,
                2,
                4,
                5
            ],
            "name" : "GLTF_SceneRootNode",
            "rotation" : [
                0.7071068286895752,
                0,
                0,
                0.7071068286895752
            ]
        },
        {
            "children" : [
                6
            ],
            "name" : "root"
        },
        {
            "children" : [
                7
            ],
            "name" : "RootNode (model correction matrix)"
        },
        {
            "children" : [
                8
            ],
            "name" : "RootNode (gltf orientation matrix)",
            "rotation" : [
                -0.7071068286895752,
                0,
                0,
                0.7071068286895752
            ]
        }
    ],
    "materials" : [
        {
            "doubleSided" : true,
            "emissiveFactor" : [
                0,
                0,
                0
            ],
            "name" : "Material.004",
            "pbrMetallicRoughness" : {
                "baseColorFactor" : [
                    0.0025795067194849253,
                    0.0025795067194849253,
                    0.0025795067194849253,
                    1
                ],
                "metallicFactor" : 0,
                "roughnessFactor" : 0.5
            }
        },
        {
            "alphaMode" : "BLEND",
            "doubleSided" : true,
            "emissiveFactor" : [
                0,
                0,
                0
            ],
            "name" : "lens",
            "pbrMetallicRoughness" : {
                "baseColorFactor" : [
                    0.9928723573684692,
                    1,
                    0.6050650477409363,
                    0.20000000298023224
                ],
                "metallicFactor" : 0.47727298736572266,
                "roughnessFactor" : 0
            }
        }
    ],
    "meshes" : [
        {
            "name" : "Mesh_3.001",
            "primitives" : [
                {
                    "attributes" : {
                        "POSITION" : 0,
                        "NORMAL" : 1,
                        "TEXCOORD_0" : 2
                    },
                    "indices" : 3,
                    "material" : 0
                }
            ]
        },
        {
            "name" : "Mesh_4.001",
            "primitives" : [
                {
                    "attributes" : {
                        "POSITION" : 4,
                        "NORMAL" : 5,
                        "TEXCOORD_0" : 6
                    },
                    "indices" : 7,
                    "material" : 1
                }
            ]
        }
    ],
    "accessors" : [
        {
            "bufferView" : 0,
            "componentType" : 5126,
            "count" : 4106,
            "max" : [
                33.940406799316406,
                2.6943624019622803,
                14.36468505859375
            ],
            "min" : [
                -3.6242384910583496,
                -26.599061965942383,
                -14.36468505859375
            ],
            "type" : "VEC3"
        },
        {
            "bufferView" : 1,
            "componentType" : 5126,
            "count" : 4106,
            "type" : "VEC3"
        },
        {
            "bufferView" : 2,
            "componentType" : 5126,
            "count" : 4106,
            "type" : "VEC2"
        },
        {
            "bufferView" : 3,
            "componentType" : 5123,
            "count" : 7740,
            "type" : "SCALAR"
        },
        {
            "bufferView" : 4,
            "componentType" : 5126,
            "count" : 396,
            "max" : [
                0.9143983721733093,
                -0.026066873222589493,
                1.0054407119750977
            ],
            "min" : [
                -0.9740157723426819,
                -0.20439784228801727,
                -1.0100781917572021
            ],
            "type" : "VEC3"
        },
        {
            "bufferView" : 5,
            "componentType" : 5126,
            "count" : 396,
            "type" : "VEC3"
        },
        {
            "bufferView" : 6,
            "componentType" : 5126,
            "count" : 396,
            "type" : "VEC2"
        },
        {
            "bufferView" : 7,
            "componentType" : 5123,
            "count" : 1620,
            "type" : "SCALAR"
        }
    ],
    "bufferViews" : [
        {
            "buffer" : 0,
            "byteLength" : 49272,
            "byteOffset" : 0
        },
        {
            "buffer" : 0,
            "byteLength" : 49272,
            "byteOffset" : 49272
        },
        {
            "buffer" : 0,
            "byteLength" : 32848,
            "byteOffset" : 98544
        },
        {
            "buffer" : 0,
            "byteLength" : 15480,
            "byteOffset" : 131392
        },
        {
            "buffer" : 0,
            "byteLength" : 4752,
            "byteOffset" : 146872
        },
        {
            "buffer" : 0,
            "byteLength" : 4752,
            "byteOffset" : 151624
        },
        {
            "buffer" : 0,
            "byteLength" : 3168,
            "byteOffset" : 156376
        },
        {
            "buffer" : 0,
            "byteLength" : 3240,
            "byteOffset" : 159544
        }
    ],
    "buffers" : [
        {
            "byteLength" : 162784,
            "uri" : "data:application/octet-stream;base64,"
        }
    ]
}
