{
    "asset" : {
        "generator" : "Khronos glTF Blender I/O v1.3.48",
        "version" : "2.0"
    },
    "scene" : 0,
    "scenes" : [
        {
            "name" : "Scene",
            "nodes" : [
                23
            ]
        }
    ],
    "nodes" : [
        {
            "mesh" : 0,
            "name" : "Mesh_0.006"
        },
        {
            "children" : [
                0
            ],
            "name" : "clickwheel_low_0",
            "translation" : [
                0.007273999974131584,
                -0.0031999999191612005,
                0.1850000023841858
            ]
        },
        {
            "mesh" : 1,
            "name" : "Mesh_1.006"
        },
        {
            "children" : [
                2
            ],
            "name" : "firewire_metal_low_1",
            "translation" : [
                0.0002410000015515834,
                0.04973199963569641,
                -0.026598000898957253
            ]
        },
        {
            "mesh" : 2,
            "name" : "Mesh_2.006"
        },
        {
            "children" : [
                4
            ],
            "name" : "firewire_plug_low_2",
            "translation" : [
                0.004021999891847372,
                0.009723000228404999,
                -0.030378999188542366
            ]
        },
        {
            "mesh" : 3,
            "name" : "Mesh_3.005"
        },
        {
            "children" : [
                6
            ],
            "name" : "hold_switch_low_3",
            "translation" : [
                -0.259319007396698,
                0.030969999730587006,
                -0.01728600077331066
            ]
        },
        {
            "mesh" : 4,
            "name" : "Mesh_4.005"
        },
        {
            "children" : [
                8
            ],
            "name" : "inner_plastic_panel_low_4",
            "translation" : [
                0,
                0,
                -0.024469999596476555
            ]
        },
        {
            "mesh" : 5,
            "name" : "Mesh_5.004"
        },
        {
            "children" : [
                10
            ],
            "name" : "metal_back_low_5"
        },
        {
            "mesh" : 6,
            "name" : "Mesh_6.004"
        },
        {
            "children" : [
                12
            ],
            "name" : "separation_panel_low_6",
            "translation" : [
                0,
                0,
                -0.02046000026166439
            ]
        },
        {
            "mesh" : 7,
            "name" : "Mesh_7.004"
        },
        {
            "children" : [
                14
            ],
            "name" : "top_io_low_7",
            "translation" : [
                0,
                0.026917999610304832,
                -0.02463199943304062
            ]
        },
        {
            "mesh" : 8,
            "name" : "Mesh_8.004"
        },
        {
            "children" : [
                16
            ],
            "name" : "transparent_panel_low_8",
            "translation" : [
                0,
                0,
                -0.033330999314785004
            ]
        },
        {
            "children" : [
                1,
                3,
                5,
                7,
                9,
                11,
                13,
                15,
                17
            ],
            "name" : "iPod_9",
            "scale" : [
                10,
                10,
                10
            ]
        },
        {
            "children" : [
                18
            ],
            "name" : "GLTF_SceneRootNode"
        },
        {
            "children" : [
                19
            ],
            "name" : "Correction matrix",
            "rotation" : [
                0.7071068286895752,
                0,
                0,
                0.7071068286895752
            ]
        },
        {
            "children" : [
                20
            ],
            "name" : "root"
        },
        {
            "children" : [
                21
            ],
            "name" : "RootNode (model correction matrix)",
            "rotation" : [
                0,
                0,
                -0.5138885974884033,
                0.8578569293022156
            ],
            "translation" : [
                1.3154444694519043,
                -0.33334505558013916,
                0
            ]
        },
        {
            "children" : [
                22
            ],
            "name" : "RootNode (gltf orientation matrix)",
            "rotation" : [
                -0.7071068286895752,
                0,
                0,
                0.7071068286895752
            ],
            "scale" : [
                0.31801068782806396,
                0.31801068782806396,
                0.31801068782806396
            ],
            "translation" : [
                0,
                22.803611755371094,
                0
            ]
        }
    ],
    "materials" : [
        {
            "emissiveFactor" : [
                1,
                1,
                1
            ],
            "emissiveTexture" : {
                "index" : 0,
                "texCoord" : 0
            },
            "name" : "Body",
            "normalTexture" : {
                "index" : 1,
                "texCoord" : 0
            },
            "occlusionTexture" : {
                "index" : 2,
                "texCoord" : 0
            },
            "pbrMetallicRoughness" : {
                "baseColorTexture" : {
                    "index" : 3,
                    "texCoord" : 0
                },
                "metallicRoughnessTexture" : {
                    "index" : 2,
                    "texCoord" : 0
                }
            }
        },
        {
            "alphaMode" : "BLEND",
            "emissiveFactor" : [
                0,
                0,
                0
            ],
            "name" : "TransparentPlastic",
            "normalTexture" : {
                "index" : 4,
                "texCoord" : 0
            },
            "pbrMetallicRoughness" : {
                "baseColorTexture" : {
                    "index" : 5,
                    "texCoord" : 0
                },
                "metallicFactor" : 1,
                "roughnessFactor" : 0.10999999940395355
            }
        }
    ],
    "meshes" : [
        {
            "name" : "Mesh_0.006",
            "primitives" : [
                {
                    "attributes" : {
                        "POSITION" : 0,
                        "NORMAL" : 1,
                        "TEXCOORD_0" : 2
                    },
                    "indices" : 3,
                    "material" : 0
                }
            ]
        },
        {
            "name" : "Mesh_1.006",
            "primitives" : [
                {
                    "attributes" : {
                        "POSITION" : 4,
                        "NORMAL" : 5,
                        "TEXCOORD_0" : 6
                    },
                    "indices" : 7,
                    "material" : 0
                }
            ]
        },
        {
            "name" : "Mesh_2.006",
            "primitives" : [
                {
                    "attributes" : {
                        "POSITION" : 8,
                        "NORMAL" : 9,
                        "TEXCOORD_0" : 10
                    },
                    "indices" : 11,
                    "material" : 0
                }
            ]
        },
        {
            "name" : "Mesh_3.005",
            "primitives" : [
                {
                    "attributes" : {
                        "POSITION" : 12,
                        "NORMAL" : 13,
                        "TEXCOORD_0" : 14
                    },
                    "indices" : 15,
                    "material" : 0
                }
            ]
        },
        {
            "name" : "Mesh_4.005",
            "primitives" : [
                {
                    "attributes" : {
                        "POSITION" : 16,
                        "NORMAL" : 17,
                        "TEXCOORD_0" : 18
                    },
                    "indices" : 19,
                    "material" : 0
                }
            ]
        },
        {
            "name" : "Mesh_5.004",
            "primitives" : [
                {
                    "attributes" : {
                        "POSITION" : 20,
                        "NORMAL" : 21,
                        "TEXCOORD_0" : 22
                    },
                    "indices" : 23,
                    "material" : 0
                }
            ]
        },
        {
            "name" : "Mesh_6.004",
            "primitives" : [
                {
                    "attributes" : {
                        "POSITION" : 24,
                        "NORMAL" : 25,
                        "TEXCOORD_0" : 26
                    },
                    "indices" : 27,
                    "material" : 0
                }
            ]
        },
        {
            "name" : "Mesh_7.004",
            "primitives" : [
                {
                    "attributes" : {
                        "POSITION" : 28,
                        "NORMAL" : 29,
                        "TEXCOORD_0" : 30
                    },
                    "indices" : 31,
                    "material" : 0
                }
            ]
        },
        {
            "name" : "Mesh_8.004",
            "primitives" : [
                {
                    "attributes" : {
                        "POSITION" : 32,
                        "NORMAL" : 33,
                        "TEXCOORD_0" : 34
                    },
                    "indices" : 35,
                    "material" : 1
                }
            ]
        }
    ],
    "textures" : [
        {
            "sampler" : 0,
            "source" : 0
        },
        {
            "sampler" : 1,
            "source" : 1
        },
        {
            "sampler" : 2,
            "source" : 2
        },
        {
            "sampler" : 3,
            "source" : 3
        },
        {
            "sampler" : 4,
            "source" : 4
        },
        {
            "sampler" : 5,
            "source" : 5
        }
    ],
    "images" : [
        {
            "bufferView" : 4,
            "mimeType" : "image/png",
            "name" : "Body_emissive"
        },
        {
            "bufferView" : 5,
            "mimeType" : "image/png",
            "name" : "Body_normal"
        },
        {
            "bufferView" : 6,
            "mimeType" : "image/png",
            "name" : "Body_metallicRoughness"
        },
        {
            "bufferView" : 7,
            "mimeType" : "image/png",
            "name" : "Body_baseColor"
        },
        {
            "bufferView" : 40,
            "mimeType" : "image/png",
            "name" : "TransparentPlastic_normal"
        },
        {
            "bufferView" : 41,
            "mimeType" : "image/png",
            "name" : "TransparentPlastic_baseColor"
        }
    ],
    "accessors" : [
        {
            "bufferView" : 0,
            "componentType" : 5126,
            "count" : 243,
            "max" : [
                3.6857519149780273,
                1.4229769706726074,
                -0.7028570175170898
            ],
            "min" : [
                -3.6857519149780273,
                -5.948526859283447,
                -1.426650047302246
            ],
            "type" : "VEC3"
        },
        {
            "bufferView" : 1,
            "componentType" : 5126,
            "count" : 243,
            "type" : "VEC3"
        },
        {
            "bufferView" : 2,
            "componentType" : 5126,
            "count" : 243,
            "type" : "VEC2"
        },
        {
            "bufferView" : 3,
            "componentType" : 5123,
            "count" : 1008,
            "type" : "SCALAR"
        },
        {
            "bufferView" : 8,
            "componentType" : 5126,
            "count" : 368,
            "max" : [
                3.329690933227539,
                7.500249862670898,
                0.9329270124435425
            ],
            "min" : [
                1.3945579528808594,
                6.3173651695251465,
                -0.26745399832725525
            ],
            "type" : "VEC3"
        },
        {
            "bufferView" : 9,
            "componentType" : 5126,
            "count" : 368,
            "type" : "VEC3"
        },
        {
            "bufferView" : 10,
            "componentType" : 5126,
            "count" : 368,
            "type" : "VEC2"
        },
        {
            "bufferView" : 11,
            "componentType" : 5123,
            "count" : 624,
            "type" : "SCALAR"
        },
        {
            "bufferView" : 12,
            "componentType" : 5126,
            "count" : 676,
            "max" : [
                2.8052499294281006,
                7.476131916046143,
                0.4411599934101105
            ],
            "min" : [
                1.8495800495147705,
                6.35886287689209,
                0.22925999760627747
            ],
            "type" : "VEC3"
        },
        {
            "bufferView" : 13,
            "componentType" : 5126,
            "count" : 676,
            "type" : "VEC3"
        },
        {
            "bufferView" : 14,
            "componentType" : 5126,
            "count" : 676,
            "type" : "VEC2"
        },
        {
            "bufferView" : 15,
            "componentType" : 5123,
            "count" : 966,
            "type" : "SCALAR"
        },
        {
            "bufferView" : 16,
            "componentType" : 5126,
            "count" : 410,
            "max" : [
                -1.514562964439392,
                7.538036823272705,
                0.8830770254135132
            ],
            "min" : [
                -3.087999105453491,
                7.429916858673096,
                -0.2374120056629181
            ],
            "type" : "VEC3"
        },
        {
            "bufferView" : 17,
            "componentType" : 5126,
            "count" : 410,
            "type" : "VEC3"
        },
        {
            "bufferView" : 18,
            "componentType" : 5126,
            "count" : 410,
            "type" : "VEC2"
        },
        {
            "bufferView" : 19,
            "componentType" : 5123,
            "count" : 648,
            "type" : "SCALAR"
        },
        {
            "bufferView" : 20,
            "componentType" : 5126,
            "count" : 722,
            "max" : [
                4.063334941864014,
                7.254901885986328,
                -0.47773000597953796
            ],
            "min" : [
                -4.063334941864014,
                -6.763305187225342,
                -1.120689034461975
            ],
            "type" : "VEC3"
        },
        {
            "bufferView" : 21,
            "componentType" : 5126,
            "count" : 722,
            "type" : "VEC3"
        },
        {
            "bufferView" : 22,
            "componentType" : 5126,
            "count" : 722,
            "type" : "VEC2"
        },
        {
            "bufferView" : 23,
            "componentType" : 5123,
            "count" : 1494,
            "type" : "SCALAR"
        },
        {
            "bufferView" : 24,
            "componentType" : 5126,
            "count" : 769,
            "max" : [
                4.357752799987793,
                7.560169219970703,
                1.573941946029663
            ],
            "min" : [
                -4.267847061157227,
                -6.889330863952637,
                -0.49424800276756287
            ],
            "type" : "VEC3"
        },
        {
            "bufferView" : 25,
            "componentType" : 5126,
            "count" : 769,
            "type" : "VEC3"
        },
        {
            "bufferView" : 26,
            "componentType" : 5126,
            "count" : 769,
            "type" : "VEC2"
        },
        {
            "bufferView" : 27,
            "componentType" : 5123,
            "count" : 2613,
            "type" : "SCALAR"
        },
        {
            "bufferView" : 28,
            "componentType" : 5126,
            "count" : 374,
            "max" : [
                4.354800224304199,
                7.566455841064453,
                -0.47514501214027405
            ],
            "min" : [
                -4.283629894256592,
                -6.877620220184326,
                -0.47514599561691284
            ],
            "type" : "VEC3"
        },
        {
            "bufferView" : 29,
            "componentType" : 5126,
            "count" : 374,
            "type" : "VEC3"
        },
        {
            "bufferView" : 30,
            "componentType" : 5126,
            "count" : 374,
            "type" : "VEC2"
        },
        {
            "bufferView" : 31,
            "componentType" : 5123,
            "count" : 432,
            "type" : "SCALAR"
        },
        {
            "bufferView" : 32,
            "componentType" : 5126,
            "count" : 1770,
            "max" : [
                3.640101909637451,
                7.533453941345215,
                1.166152000427246
            ],
            "min" : [
                -3.561187982559204,
                6.215979099273682,
                -0.4694719910621643
            ],
            "type" : "VEC3"
        },
        {
            "bufferView" : 33,
            "componentType" : 5126,
            "count" : 1770,
            "type" : "VEC3"
        },
        {
            "bufferView" : 34,
            "componentType" : 5126,
            "count" : 1770,
            "type" : "VEC2"
        },
        {
            "bufferView" : 35,
            "componentType" : 5123,
            "count" : 2685,
            "type" : "SCALAR"
        },
        {
            "bufferView" : 36,
            "componentType" : 5126,
            "count" : 794,
            "max" : [
                4.3605499267578125,
                7.561473846435547,
                -0.4648529887199402
            ],
            "min" : [
                -4.284653186798096,
                -6.900031089782715,
                -1.287682056427002
            ],
            "type" : "VEC3"
        },
        {
            "bufferView" : 37,
            "componentType" : 5126,
            "count" : 794,
            "type" : "VEC3"
        },
        {
            "bufferView" : 38,
            "componentType" : 5126,
            "count" : 794,
            "type" : "VEC2"
        },
        {
            "bufferView" : 39,
            "componentType" : 5123,
            "count" : 1176,
            "type" : "SCALAR"
        }
    ],
    "bufferViews" : [
        {
            "buffer" : 0,
            "byteLength" : 2916,
            "byteOffset" : 0
        },
        {
            "buffer" : 0,
            "byteLength" : 2916,
            "byteOffset" : 2916
        },
        {
            "buffer" : 0,
            "byteLength" : 1944,
            "byteOffset" : 5832
        },
        {
            "buffer" : 0,
            "byteLength" : 2016,
            "byteOffset" : 7776
        },
        {
            "buffer" : 0,
            "byteLength" : 9841,
            "byteOffset" : 9792
        },
        {
            "buffer" : 0,
            "byteLength" : 553035,
            "byteOffset" : 19636
        },
        {
            "buffer" : 0,
            "byteLength" : 581298,
            "byteOffset" : 572672
        },
        {
            "buffer" : 0,
            "byteLength" : 26282,
            "byteOffset" : 1153972
        },
        {
            "buffer" : 0,
            "byteLength" : 4416,
            "byteOffset" : 1180256
        },
        {
            "buffer" : 0,
            "byteLength" : 4416,
            "byteOffset" : 1184672
        },
        {
            "buffer" : 0,
            "byteLength" : 2944,
            "byteOffset" : 1189088
        },
        {
            "buffer" : 0,
            "byteLength" : 1248,
            "byteOffset" : 1192032
        },
        {
            "buffer" : 0,
            "byteLength" : 8112,
            "byteOffset" : 1193280
        },
        {
            "buffer" : 0,
            "byteLength" : 8112,
            "byteOffset" : 1201392
        },
        {
            "buffer" : 0,
            "byteLength" : 5408,
            "byteOffset" : 1209504
        },
        {
            "buffer" : 0,
            "byteLength" : 1932,
            "byteOffset" : 1214912
        },
        {
            "buffer" : 0,
            "byteLength" : 4920,
            "byteOffset" : 1216844
        },
        {
            "buffer" : 0,
            "byteLength" : 4920,
            "byteOffset" : 1221764
        },
        {
            "buffer" : 0,
            "byteLength" : 3280,
            "byteOffset" : 1226684
        },
        {
            "buffer" : 0,
            "byteLength" : 1296,
            "byteOffset" : 1229964
        },
        {
            "buffer" : 0,
            "byteLength" : 8664,
            "byteOffset" : 1231260
        },
        {
            "buffer" : 0,
            "byteLength" : 8664,
            "byteOffset" : 1239924
        },
        {
            "buffer" : 0,
            "byteLength" : 5776,
            "byteOffset" : 1248588
        },
        {
            "buffer" : 0,
            "byteLength" : 2988,
            "byteOffset" : 1254364
        },
        {
            "buffer" : 0,
            "byteLength" : 9228,
            "byteOffset" : 1257352
        },
        {
            "buffer" : 0,
            "byteLength" : 9228,
            "byteOffset" : 1266580
        },
        {
            "buffer" : 0,
            "byteLength" : 6152,
            "byteOffset" : 1275808
        },
        {
            "buffer" : 0,
            "byteLength" : 5226,
            "byteOffset" : 1281960
        },
        {
            "buffer" : 0,
            "byteLength" : 4488,
            "byteOffset" : 1287188
        },
        {
            "buffer" : 0,
            "byteLength" : 4488,
            "byteOffset" : 1291676
        },
        {
            "buffer" : 0,
            "byteLength" : 2992,
            "byteOffset" : 1296164
        },
        {
            "buffer" : 0,
            "byteLength" : 864,
            "byteOffset" : 1299156
        },
        {
            "buffer" : 0,
            "byteLength" : 21240,
            "byteOffset" : 1300020
        },
        {
            "buffer" : 0,
            "byteLength" : 21240,
            "byteOffset" : 1321260
        },
        {
            "buffer" : 0,
            "byteLength" : 14160,
            "byteOffset" : 1342500
        },
        {
            "buffer" : 0,
            "byteLength" : 5370,
            "byteOffset" : 1356660
        },
        {
            "buffer" : 0,
            "byteLength" : 9528,
            "byteOffset" : 1362032
        },
        {
            "buffer" : 0,
            "byteLength" : 9528,
            "byteOffset" : 1371560
        },
        {
            "buffer" : 0,
            "byteLength" : 6352,
            "byteOffset" : 1381088
        },
        {
            "buffer" : 0,
            "byteLength" : 2352,
            "byteOffset" : 1387440
        },
        {
            "buffer" : 0,
            "byteLength" : 184215,
            "byteOffset" : 1389792
        },
        {
            "buffer" : 0,
            "byteLength" : 8389,
            "byteOffset" : 1574008
        }
    ],
    "samplers" : [
        {
            "magFilter" : 9728,
            "minFilter" : 9984
        },
        {
            "magFilter" : 9728,
            "minFilter" : 9984
        },
        {
            "magFilter" : 9728,
            "minFilter" : 9984
        },
        {
            "magFilter" : 9728,
            "minFilter" : 9984
        },
        {
            "magFilter" : 9728,
            "minFilter" : 9984
        },
        {
            "magFilter" : 9728,
            "minFilter" : 9984
        }
    ],
    "buffers" : [
        {
            "byteLength" : 1582400,
            "uri" : "data:application/octet-stream;base64,"
        }
    ]
}
