{
    "asset" : {
        "generator" : "Khronos glTF Blender I/O v1.3.48",
        "version" : "2.0"
    },
    "scene" : 0,
    "scenes" : [
        {
            "name" : "Scene",
            "nodes" : [
                3
            ]
        }
    ],
    "nodes" : [
        {
            "mesh" : 0,
            "name" : "Mesh_7.005"
        },
        {
            "mesh" : 1,
            "name" : "Mesh_8.001",
            "translation" : [
                0,
                -0.012483883649110794,
                0
            ]
        },
        {
            "mesh" : 2,
            "name" : "Mesh_8.005"
        },
        {
            "children" : [
                0,
                1,
                2
            ],
            "name" : "CD_1",
            "rotation" : [
                0.4999999403953552,
                0.5000000596046448,
                -0.5000000596046448,
                -0.5
            ],
            "scale" : [
                1.0221929550170898,
                1.022193193435669,
                1.0221929550170898
            ],
            "translation" : [
                -0.00023537874221801758,
                0.8797199130058289,
                0.00950932502746582
            ]
        }
    ],
    "materials" : [
        {
            "doubleSided" : true,
            "emissiveFactor" : [
                0,
                0,
                0
            ],
            "name" : "Material.060",
            "pbrMetallicRoughness" : {
                "baseColorFactor" : [
                    0.8000000715255737,
                    0.7105731964111328,
                    0.7770625948905945,
                    1
                ],
                "metallicFactor" : 1,
                "roughnessFactor" : 0.5
            }
        },
        {
            "alphaCutoff" : 0.5,
            "alphaMode" : "MASK",
            "doubleSided" : true,
            "emissiveFactor" : [
                0,
                0,
                0
            ],
            "name" : "Material.059",
            "pbrMetallicRoughness" : {
                "baseColorTexture" : {
                    "index" : 0,
                    "texCoord" : 0
                },
                "metallicFactor" : 0,
                "roughnessFactor" : 0.4090909957885742
            }
        }
    ],
    "meshes" : [
        {
            "name" : "Mesh_7.005",
            "primitives" : [
                {
                    "attributes" : {
                        "POSITION" : 0,
                        "NORMAL" : 1,
                        "TEXCOORD_0" : 2
                    },
                    "indices" : 3,
                    "material" : 0
                }
            ]
        },
        {
            "name" : "Mesh_8.006",
            "primitives" : [
                {
                    "attributes" : {
                        "POSITION" : 4,
                        "NORMAL" : 5,
                        "TEXCOORD_0" : 6
                    },
                    "indices" : 7,
                    "material" : 1
                }
            ]
        },
        {
            "name" : "Mesh_8.005",
            "primitives" : [
                {
                    "attributes" : {
                        "POSITION" : 8,
                        "NORMAL" : 9,
                        "TEXCOORD_0" : 10
                    },
                    "indices" : 7,
                    "material" : 1
                }
            ]
        }
    ],
    "textures" : [
        {
            "source" : 0
        }
    ],
    "images" : [
        {
            "bufferView" : 8,
            "mimeType" : "image/png",
            "name" : "Material.001_baseColor"
        }
    ],
    "accessors" : [
        {
            "bufferView" : 0,
            "componentType" : 5126,
            "count" : 2880,
            "max" : [
                0.9147648811340332,
                0.00669117784127593,
                0.9147648811340332
            ],
            "min" : [
                -0.9147648215293884,
                -0.0015309769660234451,
                -0.9147648215293884
            ],
            "type" : "VEC3"
        },
        {
            "bufferView" : 1,
            "componentType" : 5126,
            "count" : 2880,
            "type" : "VEC3"
        },
        {
            "bufferView" : 2,
            "componentType" : 5126,
            "count" : 2880,
            "type" : "VEC2"
        },
        {
            "bufferView" : 3,
            "componentType" : 5123,
            "count" : 2880,
            "type" : "SCALAR"
        },
        {
            "bufferView" : 4,
            "componentType" : 5126,
            "count" : 570,
            "max" : [
                0.32980456948280334,
                0.009312408976256847,
                0.3298036754131317
            ],
            "min" : [
                -0.32980456948280334,
                -0.0015309769660234451,
                -0.3298055827617645
            ],
            "type" : "VEC3"
        },
        {
            "bufferView" : 5,
            "componentType" : 5126,
            "count" : 570,
            "type" : "VEC3"
        },
        {
            "bufferView" : 6,
            "componentType" : 5126,
            "count" : 570,
            "type" : "VEC2"
        },
        {
            "bufferView" : 7,
            "componentType" : 5123,
            "count" : 576,
            "type" : "SCALAR"
        },
        {
            "bufferView" : 9,
            "componentType" : 5126,
            "count" : 570,
            "max" : [
                0.32980456948280334,
                0.009312408976256847,
                0.3298036754131317
            ],
            "min" : [
                -0.32980456948280334,
                -0.0015309769660234451,
                -0.3298055827617645
            ],
            "type" : "VEC3"
        },
        {
            "bufferView" : 10,
            "componentType" : 5126,
            "count" : 570,
            "type" : "VEC3"
        },
        {
            "bufferView" : 11,
            "componentType" : 5126,
            "count" : 570,
            "type" : "VEC2"
        }
    ],
    "bufferViews" : [
        {
            "buffer" : 0,
            "byteLength" : 34560,
            "byteOffset" : 0
        },
        {
            "buffer" : 0,
            "byteLength" : 34560,
            "byteOffset" : 34560
        },
        {
            "buffer" : 0,
            "byteLength" : 23040,
            "byteOffset" : 69120
        },
        {
            "buffer" : 0,
            "byteLength" : 5760,
            "byteOffset" : 92160
        },
        {
            "buffer" : 0,
            "byteLength" : 6840,
            "byteOffset" : 97920
        },
        {
            "buffer" : 0,
            "byteLength" : 6840,
            "byteOffset" : 104760
        },
        {
            "buffer" : 0,
            "byteLength" : 4560,
            "byteOffset" : 111600
        },
        {
            "buffer" : 0,
            "byteLength" : 1152,
            "byteOffset" : 116160
        },
        {
            "buffer" : 0,
            "byteLength" : 244392,
            "byteOffset" : 117312
        },
        {
            "buffer" : 0,
            "byteLength" : 6840,
            "byteOffset" : 361704
        },
        {
            "buffer" : 0,
            "byteLength" : 6840,
            "byteOffset" : 368544
        },
        {
            "buffer" : 0,
            "byteLength" : 4560,
            "byteOffset" : 375384
        }
    ],
    "buffers" : [
        {
            "byteLength" : 379944,
            "uri" : "data:application/octet-stream;base64,"
        }
    ]
}
