{
    "asset" : {
        "generator" : "Khronos glTF Blender I/O v1.3.48",
        "version" : "2.0"
    },
    "scene" : 0,
    "scenes" : [
        {
            "name" : "Scene",
            "nodes" : [
                0,
                1
            ]
        }
    ],
    "nodes" : [
        {
            "mesh" : 0,
            "name" : "Mesh_11",
            "scale" : [
                4.501829624176025,
                4.501829624176025,
                4.501829624176025
            ]
        },
        {
            "mesh" : 1,
            "name" : "Mesh_19",
            "scale" : [
                4.501829624176025,
                4.501829624176025,
                4.501829624176025
            ]
        }
    ],
    "materials" : [
        {
            "doubleSided" : true,
            "emissiveFactor" : [
                0,
                0,
                0
            ],
            "name" : "Scene_-_Root.001",
            "pbrMetallicRoughness" : {
                "baseColorFactor" : [
                    0.558967649936676,
                    0.6509289741516113,
                    0.4750722050666809,
                    1
                ],
                "metallicFactor" : 0,
                "roughnessFactor" : 0.550495445728302
            }
        }
    ],
    "meshes" : [
        {
            "name" : "Mesh_11",
            "primitives" : [
                {
                    "attributes" : {
                        "POSITION" : 0,
                        "NORMAL" : 1,
                        "TEXCOORD_0" : 2
                    },
                    "indices" : 3,
                    "material" : 0
                }
            ]
        },
        {
            "name" : "Mesh_19",
            "primitives" : [
                {
                    "attributes" : {
                        "POSITION" : 4,
                        "NORMAL" : 5
                    },
                    "indices" : 6,
                    "material" : 0
                }
            ]
        }
    ],
    "accessors" : [
        {
            "bufferView" : 0,
            "componentType" : 5126,
            "count" : 662,
            "max" : [
                0.4209790527820587,
                0.42290806770324707,
                1.0960578918457031
            ],
            "min" : [
                -0.4209790527820587,
                0,
                -0.44510817527770996
            ],
            "type" : "VEC3"
        },
        {
            "bufferView" : 1,
            "componentType" : 5126,
            "count" : 662,
            "type" : "VEC3"
        },
        {
            "bufferView" : 2,
            "componentType" : 5126,
            "count" : 662,
            "type" : "VEC2"
        },
        {
            "bufferView" : 3,
            "componentType" : 5123,
            "count" : 1482,
            "type" : "SCALAR"
        },
        {
            "bufferView" : 4,
            "componentType" : 5126,
            "count" : 216,
            "max" : [
                0.5038473010063171,
                0.0703163892030716,
                -0.1078638881444931
            ],
            "min" : [
                -0.18006658554077148,
                -0.0024216845631599426,
                -0.9048067331314087
            ],
            "type" : "VEC3"
        },
        {
            "bufferView" : 5,
            "componentType" : 5126,
            "count" : 216,
            "type" : "VEC3"
        },
        {
            "bufferView" : 6,
            "componentType" : 5123,
            "count" : 1248,
            "type" : "SCALAR"
        }
    ],
    "bufferViews" : [
        {
            "buffer" : 0,
            "byteLength" : 7944,
            "byteOffset" : 0
        },
        {
            "buffer" : 0,
            "byteLength" : 7944,
            "byteOffset" : 7944
        },
        {
            "buffer" : 0,
            "byteLength" : 5296,
            "byteOffset" : 15888
        },
        {
            "buffer" : 0,
            "byteLength" : 2964,
            "byteOffset" : 21184
        },
        {
            "buffer" : 0,
            "byteLength" : 2592,
            "byteOffset" : 24148
        },
        {
            "buffer" : 0,
            "byteLength" : 2592,
            "byteOffset" : 26740
        },
        {
            "buffer" : 0,
            "byteLength" : 2496,
            "byteOffset" : 29332
        }
    ],
    "buffers" : [
        {
            "byteLength" : 31828,
            "uri" : "data:application/octet-stream;base64,"
        }
    ]
}
