{
    "asset" : {
        "generator" : "Khronos glTF Blender I/O v1.3.48",
        "version" : "2.0"
    },
    "scene" : 0,
    "scenes" : [
        {
            "name" : "Scene",
            "nodes" : [
                12
            ]
        }
    ],
    "nodes" : [
        {
            "mesh" : 0,
            "name" : "BezierCurve_LogoMaterial_0"
        },
        {
            "mesh" : 1,
            "name" : "BezierCurve_Material_0"
        },
        {
            "children" : [
                0,
                1
            ],
            "name" : "BezierCurve",
            "rotation" : [
                -0.7071068286895752,
                0,
                0,
                0.7071067094802856
            ],
            "scale" : [
                100,
                100,
                100
            ]
        },
        {
            "mesh" : 2,
            "name" : "BezierCurve.001_LogoMaterial_0"
        },
        {
            "mesh" : 3,
            "name" : "BezierCurve.001_Material_0"
        },
        {
            "children" : [
                3,
                4
            ],
            "name" : "BezierCurve.001",
            "rotation" : [
                0,
                0.23934923112392426,
                0,
                0.9709335565567017
            ],
            "scale" : [
                99.99999237060547,
                100,
                99.99999237060547
            ],
            "translation" : [
                -59.64242935180664,
                0,
                -75.14798736572266
            ]
        },
        {
            "mesh" : 4,
            "name" : "BezierCurve.002_LogoMaterial_0"
        },
        {
            "mesh" : 5,
            "name" : "BezierCurve.002_Material_0"
        },
        {
            "children" : [
                6,
                7
            ],
            "name" : "BezierCurve.002",
            "rotation" : [
                0,
                -0.7774825692176819,
                0,
                0.6289045214653015
            ],
            "scale" : [
                100,
                100,
                100
            ],
            "translation" : [
                -288.5708312988281,
                0,
                156.58387756347656
            ]
        },
        {
            "children" : [
                2,
                5,
                8
            ],
            "name" : "RootNode"
        },
        {
            "children" : [
                9
            ],
            "name" : "809027f3aff341d389c206c56aee1aa6.fbx",
            "rotation" : [
                0.7071068286895752,
                0,
                0,
                0.7071068286895752
            ]
        },
        {
            "children" : [
                10
            ],
            "name" : "RootNode (model correction matrix)"
        },
        {
            "children" : [
                11
            ],
            "name" : "RootNode (gltf orientation matrix)",
            "rotation" : [
                -0.7071068286895752,
                0,
                0,
                0.7071068286895752
            ],
            "scale" : [
                0.22460293769836426,
                0.22460293769836426,
                0.22460293769836426
            ],
            "translation" : [
                34.3987922668457,
                17.333145141601562,
                2.3288614556804532e-06
            ]
        }
    ],
    "materials" : [
        {
            "doubleSided" : true,
            "emissiveFactor" : [
                0,
                0,
                0
            ],
            "name" : "LogoMaterial",
            "pbrMetallicRoughness" : {
                "baseColorTexture" : {
                    "index" : 0,
                    "texCoord" : 0
                },
                "metallicFactor" : 0,
                "roughnessFactor" : 0.23608994483947754
            }
        },
        {
            "doubleSided" : true,
            "emissiveFactor" : [
                0,
                0,
                0
            ],
            "name" : "Material.053",
            "normalTexture" : {
                "index" : 1,
                "texCoord" : 0
            },
            "occlusionTexture" : {
                "index" : 2,
                "texCoord" : 0
            },
            "pbrMetallicRoughness" : {
                "baseColorTexture" : {
                    "index" : 3,
                    "texCoord" : 0
                },
                "metallicRoughnessTexture" : {
                    "index" : 2,
                    "texCoord" : 0
                }
            }
        }
    ],
    "meshes" : [
        {
            "name" : "BezierCurve_LogoMaterial_0",
            "primitives" : [
                {
                    "attributes" : {
                        "POSITION" : 0,
                        "NORMAL" : 1,
                        "TEXCOORD_0" : 2
                    },
                    "indices" : 3,
                    "material" : 0
                }
            ]
        },
        {
            "name" : "BezierCurve_Material_0",
            "primitives" : [
                {
                    "attributes" : {
                        "POSITION" : 4,
                        "NORMAL" : 5,
                        "TEXCOORD_0" : 6,
                        "TEXCOORD_1" : 7
                    },
                    "indices" : 8,
                    "material" : 1
                }
            ]
        },
        {
            "name" : "BezierCurve.001_LogoMaterial_0",
            "primitives" : [
                {
                    "attributes" : {
                        "POSITION" : 9,
                        "NORMAL" : 10,
                        "TEXCOORD_0" : 11
                    },
                    "indices" : 3,
                    "material" : 0
                }
            ]
        },
        {
            "name" : "BezierCurve.001_Material_0",
            "primitives" : [
                {
                    "attributes" : {
                        "POSITION" : 12,
                        "NORMAL" : 13,
                        "TEXCOORD_0" : 14,
                        "TEXCOORD_1" : 15
                    },
                    "indices" : 8,
                    "material" : 1
                }
            ]
        },
        {
            "name" : "BezierCurve.002_LogoMaterial_0",
            "primitives" : [
                {
                    "attributes" : {
                        "POSITION" : 16,
                        "NORMAL" : 17,
                        "TEXCOORD_0" : 18
                    },
                    "indices" : 3,
                    "material" : 0
                }
            ]
        },
        {
            "name" : "BezierCurve.002_Material_0",
            "primitives" : [
                {
                    "attributes" : {
                        "POSITION" : 19,
                        "NORMAL" : 20,
                        "TEXCOORD_0" : 21,
                        "TEXCOORD_1" : 22
                    },
                    "indices" : 8,
                    "material" : 1
                }
            ]
        }
    ],
    "textures" : [
        {
            "source" : 0
        },
        {
            "source" : 1
        },
        {
            "source" : 2
        },
        {
            "source" : 3
        }
    ],
    "images" : [
        {
            "bufferView" : 4,
            "mimeType" : "image/png",
            "name" : "LogoMaterial_baseColor"
        },
        {
            "bufferView" : 10,
            "mimeType" : "image/png",
            "name" : "Material_normal"
        },
        {
            "bufferView" : 11,
            "mimeType" : "image/png",
            "name" : "Material_metallicRoughness"
        },
        {
            "bufferView" : 12,
            "mimeType" : "image/png",
            "name" : "Material_baseColor"
        }
    ],
    "accessors" : [
        {
            "bufferView" : 0,
            "componentType" : 5126,
            "count" : 108,
            "max" : [
                1.0507065057754517,
                -0.736163318157196,
                2.7381887435913086
            ],
            "min" : [
                -1.0507065057754517,
                -0.7361635565757751,
                0.26593780517578125
            ],
            "type" : "VEC3"
        },
        {
            "bufferView" : 1,
            "componentType" : 5126,
            "count" : 108,
            "type" : "VEC3"
        },
        {
            "bufferView" : 2,
            "componentType" : 5126,
            "count" : 108,
            "type" : "VEC2"
        },
        {
            "bufferView" : 3,
            "componentType" : 5123,
            "count" : 108,
            "type" : "SCALAR"
        },
        {
            "bufferView" : 5,
            "componentType" : 5126,
            "count" : 2043,
            "max" : [
                2.25,
                2.1606683731079102e-07,
                3
            ],
            "min" : [
                -2.25,
                -0.7500002384185791,
                -5.3197851457298384e-08
            ],
            "type" : "VEC3"
        },
        {
            "bufferView" : 6,
            "componentType" : 5126,
            "count" : 2043,
            "type" : "VEC3"
        },
        {
            "bufferView" : 7,
            "componentType" : 5126,
            "count" : 2043,
            "type" : "VEC2"
        },
        {
            "bufferView" : 8,
            "componentType" : 5126,
            "count" : 2043,
            "type" : "VEC2"
        },
        {
            "bufferView" : 9,
            "componentType" : 5123,
            "count" : 3042,
            "type" : "SCALAR"
        },
        {
            "bufferView" : 13,
            "componentType" : 5126,
            "count" : 108,
            "max" : [
                1.0507065057754517,
                -0.736163318157196,
                2.7381887435913086
            ],
            "min" : [
                -1.0507065057754517,
                -0.7361635565757751,
                0.26593780517578125
            ],
            "type" : "VEC3"
        },
        {
            "bufferView" : 14,
            "componentType" : 5126,
            "count" : 108,
            "type" : "VEC3"
        },
        {
            "bufferView" : 15,
            "componentType" : 5126,
            "count" : 108,
            "type" : "VEC2"
        },
        {
            "bufferView" : 16,
            "componentType" : 5126,
            "count" : 2043,
            "max" : [
                2.25,
                2.1606683731079102e-07,
                3
            ],
            "min" : [
                -2.25,
                -0.7500002384185791,
                -5.3197851457298384e-08
            ],
            "type" : "VEC3"
        },
        {
            "bufferView" : 17,
            "componentType" : 5126,
            "count" : 2043,
            "type" : "VEC3"
        },
        {
            "bufferView" : 18,
            "componentType" : 5126,
            "count" : 2043,
            "type" : "VEC2"
        },
        {
            "bufferView" : 19,
            "componentType" : 5126,
            "count" : 2043,
            "type" : "VEC2"
        },
        {
            "bufferView" : 20,
            "componentType" : 5126,
            "count" : 108,
            "max" : [
                1.0507065057754517,
                -0.736163318157196,
                2.7381887435913086
            ],
            "min" : [
                -1.0507065057754517,
                -0.7361635565757751,
                0.26593780517578125
            ],
            "type" : "VEC3"
        },
        {
            "bufferView" : 21,
            "componentType" : 5126,
            "count" : 108,
            "type" : "VEC3"
        },
        {
            "bufferView" : 22,
            "componentType" : 5126,
            "count" : 108,
            "type" : "VEC2"
        },
        {
            "bufferView" : 23,
            "componentType" : 5126,
            "count" : 2043,
            "max" : [
                2.25,
                2.1606683731079102e-07,
                3
            ],
            "min" : [
                -2.25,
                -0.7500002384185791,
                -5.3197851457298384e-08
            ],
            "type" : "VEC3"
        },
        {
            "bufferView" : 24,
            "componentType" : 5126,
            "count" : 2043,
            "type" : "VEC3"
        },
        {
            "bufferView" : 25,
            "componentType" : 5126,
            "count" : 2043,
            "type" : "VEC2"
        },
        {
            "bufferView" : 26,
            "componentType" : 5126,
            "count" : 2043,
            "type" : "VEC2"
        }
    ],
    "bufferViews" : [
        {
            "buffer" : 0,
            "byteLength" : 1296,
            "byteOffset" : 0
        },
        {
            "buffer" : 0,
            "byteLength" : 1296,
            "byteOffset" : 1296
        },
        {
            "buffer" : 0,
            "byteLength" : 864,
            "byteOffset" : 2592
        },
        {
            "buffer" : 0,
            "byteLength" : 216,
            "byteOffset" : 3456
        },
        {
            "buffer" : 0,
            "byteLength" : 1266664,
            "byteOffset" : 3672
        },
        {
            "buffer" : 0,
            "byteLength" : 24516,
            "byteOffset" : 1270336
        },
        {
            "buffer" : 0,
            "byteLength" : 24516,
            "byteOffset" : 1294852
        },
        {
            "buffer" : 0,
            "byteLength" : 16344,
            "byteOffset" : 1319368
        },
        {
            "buffer" : 0,
            "byteLength" : 16344,
            "byteOffset" : 1335712
        },
        {
            "buffer" : 0,
            "byteLength" : 6084,
            "byteOffset" : 1352056
        },
        {
            "buffer" : 0,
            "byteLength" : 811972,
            "byteOffset" : 1358140
        },
        {
            "buffer" : 0,
            "byteLength" : 280561,
            "byteOffset" : 2170112
        },
        {
            "buffer" : 0,
            "byteLength" : 439282,
            "byteOffset" : 2450676
        },
        {
            "buffer" : 0,
            "byteLength" : 1296,
            "byteOffset" : 2889960
        },
        {
            "buffer" : 0,
            "byteLength" : 1296,
            "byteOffset" : 2891256
        },
        {
            "buffer" : 0,
            "byteLength" : 864,
            "byteOffset" : 2892552
        },
        {
            "buffer" : 0,
            "byteLength" : 24516,
            "byteOffset" : 2893416
        },
        {
            "buffer" : 0,
            "byteLength" : 24516,
            "byteOffset" : 2917932
        },
        {
            "buffer" : 0,
            "byteLength" : 16344,
            "byteOffset" : 2942448
        },
        {
            "buffer" : 0,
            "byteLength" : 16344,
            "byteOffset" : 2958792
        },
        {
            "buffer" : 0,
            "byteLength" : 1296,
            "byteOffset" : 2975136
        },
        {
            "buffer" : 0,
            "byteLength" : 1296,
            "byteOffset" : 2976432
        },
        {
            "buffer" : 0,
            "byteLength" : 864,
            "byteOffset" : 2977728
        },
        {
            "buffer" : 0,
            "byteLength" : 24516,
            "byteOffset" : 2978592
        },
        {
            "buffer" : 0,
            "byteLength" : 24516,
            "byteOffset" : 3003108
        },
        {
            "buffer" : 0,
            "byteLength" : 16344,
            "byteOffset" : 3027624
        },
        {
            "buffer" : 0,
            "byteLength" : 16344,
            "byteOffset" : 3043968
        }
    ],
    "buffers" : [
        {
            "byteLength" : 3060312,
            "uri" : "data:application/octet-stream;base64,"
        }
    ]
}
