{
    "asset" : {
        "generator" : "Khronos glTF Blender I/O v1.3.48",
        "version" : "2.0"
    },
    "scene" : 0,
    "scenes" : [
        {
            "name" : "Scene",
            "nodes" : [
                3
            ]
        }
    ],
    "nodes" : [
        {
            "mesh" : 0,
            "name" : "Mesh_0"
        },
        {
            "children" : [
                0
            ],
            "name" : "Potato.obj.cleaner.materialmerger.gles"
        },
        {
            "children" : [
                1
            ],
            "name" : "RootNode (model correction matrix)"
        },
        {
            "children" : [
                2
            ],
            "name" : "RootNode (gltf orientation matrix)",
            "rotation" : [
                -0.7071068286895752,
                0,
                0,
                0.7071068286895752
            ],
            "scale" : [
                1.6039140224456787,
                1.6039140224456787,
                1.6039140224456787
            ],
            "translation" : [
                0,
                2.020439624786377,
                0
            ]
        }
    ],
    "materials" : [
        {
            "doubleSided" : true,
            "name" : "None.001",
            "pbrMetallicRoughness" : {}
        }
    ],
    "meshes" : [
        {
            "name" : "Mesh_0",
            "primitives" : [
                {
                    "attributes" : {
                        "POSITION" : 0,
                        "NORMAL" : 1,
                        "TEXCOORD_0" : 2
                    },
                    "indices" : 3,
                    "material" : 0
                }
            ]
        }
    ],
    "accessors" : [
        {
            "bufferView" : 0,
            "componentType" : 5126,
            "count" : 804,
            "max" : [
                2.3022239208221436,
                1.251099944114685,
                1.2597450017929077
            ],
            "min" : [
                -2.364116907119751,
                -1.2766799926757812,
                -1.2925070524215698
            ],
            "type" : "VEC3"
        },
        {
            "bufferView" : 1,
            "componentType" : 5126,
            "count" : 804,
            "type" : "VEC3"
        },
        {
            "bufferView" : 2,
            "componentType" : 5126,
            "count" : 804,
            "type" : "VEC2"
        },
        {
            "bufferView" : 3,
            "componentType" : 5123,
            "count" : 3840,
            "type" : "SCALAR"
        }
    ],
    "bufferViews" : [
        {
            "buffer" : 0,
            "byteLength" : 9648,
            "byteOffset" : 0
        },
        {
            "buffer" : 0,
            "byteLength" : 9648,
            "byteOffset" : 9648
        },
        {
            "buffer" : 0,
            "byteLength" : 6432,
            "byteOffset" : 19296
        },
        {
            "buffer" : 0,
            "byteLength" : 7680,
            "byteOffset" : 25728
        }
    ],
    "buffers" : [
        {
            "byteLength" : 33408,
            "uri" : "data:application/octet-stream;base64,"
        }
    ]
}
