{
    "asset" : {
        "generator" : "Khronos glTF Blender I/O v1.3.48",
        "version" : "2.0"
    },
    "scene" : 0,
    "scenes" : [
        {
            "name" : "Scene",
            "nodes" : [
                3
            ]
        }
    ],
    "nodes" : [
        {
            "mesh" : 0,
            "name" : "Mesh_0.002"
        },
        {
            "children" : [
                0
            ],
            "name" : "314a7901ca364dfaa5ebacc80fbfaadd.obj.cleaner.materialmerger.gle"
        },
        {
            "children" : [
                1
            ],
            "name" : "RootNode (model correction matrix)"
        },
        {
            "children" : [
                2
            ],
            "name" : "RootNode (gltf orientation matrix)",
            "rotation" : [
                -0.7071068286895752,
                0,
                0,
                0.7071068286895752
            ]
        }
    ],
    "materials" : [
        {
            "emissiveFactor" : [
                1,
                1,
                1
            ],
            "emissiveTexture" : {
                "index" : 0,
                "texCoord" : 0
            },
            "name" : "shader",
            "pbrMetallicRoughness" : {}
        }
    ],
    "meshes" : [
        {
            "name" : "Mesh_0.002",
            "primitives" : [
                {
                    "attributes" : {
                        "POSITION" : 0,
                        "NORMAL" : 1,
                        "TEXCOORD_0" : 2
                    },
                    "indices" : 3,
                    "material" : 0
                }
            ]
        }
    ],
    "textures" : [
        {
            "source" : 0
        }
    ],
    "images" : [
        {
            "bufferView" : 4,
            "mimeType" : "image/png",
            "name" : "shader_baseColor"
        }
    ],
    "accessors" : [
        {
            "bufferView" : 0,
            "componentType" : 5126,
            "count" : 2958,
            "max" : [
                5.074999809265137,
                1.7157520055770874,
                17.416431427001953
            ],
            "min" : [
                -5.074999809265137,
                -2.766697883605957,
                -0.13133099675178528
            ],
            "type" : "VEC3"
        },
        {
            "bufferView" : 1,
            "componentType" : 5126,
            "count" : 2958,
            "type" : "VEC3"
        },
        {
            "bufferView" : 2,
            "componentType" : 5126,
            "count" : 2958,
            "type" : "VEC2"
        },
        {
            "bufferView" : 3,
            "componentType" : 5123,
            "count" : 9084,
            "type" : "SCALAR"
        }
    ],
    "bufferViews" : [
        {
            "buffer" : 0,
            "byteLength" : 35496,
            "byteOffset" : 0
        },
        {
            "buffer" : 0,
            "byteLength" : 35496,
            "byteOffset" : 35496
        },
        {
            "buffer" : 0,
            "byteLength" : 23664,
            "byteOffset" : 70992
        },
        {
            "buffer" : 0,
            "byteLength" : 18168,
            "byteOffset" : 94656
        },
        {
            "buffer" : 0,
            "byteLength" : 700473,
            "byteOffset" : 112824
        }
    ],
    "buffers" : [
        {
            "byteLength" : 813300,
            "uri" : "data:application/octet-stream;base64,"
        }
    ]
}
