{
    "asset" : {
        "generator" : "Khronos glTF Blender I/O v1.3.48",
        "version" : "2.0"
    },
    "scene" : 0,
    "scenes" : [
        {
            "name" : "Scene",
            "nodes" : [
                6
            ]
        }
    ],
    "nodes" : [
        {
            "mesh" : 0,
            "name" : "contacte-material"
        },
        {
            "mesh" : 1,
            "name" : "rama-material"
        },
        {
            "mesh" : 2,
            "name" : "sim-material"
        },
        {
            "children" : [
                0,
                1,
                2
            ],
            "name" : "sim",
            "rotation" : [
                0.6532815098762512,
                0.2705981135368347,
                -0.27059799432754517,
                0.6532815098762512
            ],
            "scale" : [
                1.0888890027999878,
                1.024999976158142,
                0.8328229188919067
            ],
            "translation" : [
                0,
                0.018401622772216797,
                0.7736259698867798
            ]
        },
        {
            "children" : [
                3
            ],
            "name" : "Collada visual scene group"
        },
        {
            "children" : [
                4
            ],
            "name" : "RootNode (model correction matrix)"
        },
        {
            "children" : [
                5
            ],
            "name" : "RootNode (gltf orientation matrix)",
            "rotation" : [
                -0.7071068286895752,
                0,
                0,
                0.7071068286895752
            ]
        }
    ],
    "materials" : [
        {
            "doubleSided" : true,
            "emissiveFactor" : [
                0,
                0,
                0
            ],
            "name" : "contacte",
            "pbrMetallicRoughness" : {
                "baseColorFactor" : [
                    0.39218956232070923,
                    0.18393729627132416,
                    0.007796770893037319,
                    1
                ],
                "metallicFactor" : 1,
                "roughnessFactor" : 0.059260670095682144
            }
        },
        {
            "doubleSided" : true,
            "emissiveFactor" : [
                0,
                0,
                0
            ],
            "name" : "rama",
            "pbrMetallicRoughness" : {
                "baseColorFactor" : [
                    0.9117890000343323,
                    0.8666672110557556,
                    0.8666672110557556,
                    1
                ],
                "metallicFactor" : 0,
                "roughnessFactor" : 1
            }
        },
        {
            "doubleSided" : true,
            "emissiveFactor" : [
                0,
                0,
                0
            ],
            "name" : "material.003",
            "pbrMetallicRoughness" : {
                "baseColorFactor" : [
                    0.00045158230932429433,
                    0,
                    0.39218956232070923,
                    1
                ],
                "metallicFactor" : 0,
                "roughnessFactor" : 0.4472135901451111
            }
        }
    ],
    "meshes" : [
        {
            "name" : "contacte-material",
            "primitives" : [
                {
                    "attributes" : {
                        "POSITION" : 0,
                        "NORMAL" : 1
                    },
                    "indices" : 2,
                    "material" : 0
                }
            ]
        },
        {
            "name" : "rama-material",
            "primitives" : [
                {
                    "attributes" : {
                        "POSITION" : 3,
                        "NORMAL" : 4
                    },
                    "indices" : 5,
                    "material" : 1
                }
            ]
        },
        {
            "name" : "sim-material",
            "primitives" : [
                {
                    "attributes" : {
                        "POSITION" : 6,
                        "NORMAL" : 7
                    },
                    "indices" : 8,
                    "material" : 2
                }
            ]
        }
    ],
    "accessors" : [
        {
            "bufferView" : 0,
            "componentType" : 5126,
            "count" : 1539,
            "max" : [
                0.46437370777130127,
                0.40181300044059753,
                0.03704410046339035
            ],
            "min" : [
                -0.294283002614975,
                -0.5725448131561279,
                0.027044110000133514
            ],
            "type" : "VEC3"
        },
        {
            "bufferView" : 1,
            "componentType" : 5126,
            "count" : 1539,
            "type" : "VEC3"
        },
        {
            "bufferView" : 2,
            "componentType" : 5123,
            "count" : 2694,
            "type" : "SCALAR"
        },
        {
            "bufferView" : 3,
            "componentType" : 5126,
            "count" : 154,
            "max" : [
                0.502162516117096,
                0.6000000238418579,
                0.03499995917081833
            ],
            "min" : [
                -0.3978376090526581,
                -0.6000000238418579,
                -0.03499995917081833
            ],
            "type" : "VEC3"
        },
        {
            "bufferView" : 4,
            "componentType" : 5126,
            "count" : 154,
            "type" : "VEC3"
        },
        {
            "bufferView" : 5,
            "componentType" : 5123,
            "count" : 720,
            "type" : "SCALAR"
        },
        {
            "bufferView" : 6,
            "componentType" : 5126,
            "count" : 94,
            "max" : [
                0.502162516117096,
                0.6000000238418579,
                0.03499995917081833
            ],
            "min" : [
                -0.3978376090526581,
                -0.6000000238418579,
                -0.03499995917081833
            ],
            "type" : "VEC3"
        },
        {
            "bufferView" : 7,
            "componentType" : 5126,
            "count" : 94,
            "type" : "VEC3"
        },
        {
            "bufferView" : 8,
            "componentType" : 5123,
            "count" : 108,
            "type" : "SCALAR"
        }
    ],
    "bufferViews" : [
        {
            "buffer" : 0,
            "byteLength" : 18468,
            "byteOffset" : 0
        },
        {
            "buffer" : 0,
            "byteLength" : 18468,
            "byteOffset" : 18468
        },
        {
            "buffer" : 0,
            "byteLength" : 5388,
            "byteOffset" : 36936
        },
        {
            "buffer" : 0,
            "byteLength" : 1848,
            "byteOffset" : 42324
        },
        {
            "buffer" : 0,
            "byteLength" : 1848,
            "byteOffset" : 44172
        },
        {
            "buffer" : 0,
            "byteLength" : 1440,
            "byteOffset" : 46020
        },
        {
            "buffer" : 0,
            "byteLength" : 1128,
            "byteOffset" : 47460
        },
        {
            "buffer" : 0,
            "byteLength" : 1128,
            "byteOffset" : 48588
        },
        {
            "buffer" : 0,
            "byteLength" : 216,
            "byteOffset" : 49716
        }
    ],
    "buffers" : [
        {
            "byteLength" : 49932,
            "uri" : "data:application/octet-stream;base64,"
        }
    ]
}
