{
    "asset" : {
        "generator" : "Khronos glTF Blender I/O v1.3.48",
        "version" : "2.0"
    },
    "scene" : 0,
    "scenes" : [
        {
            "name" : "Scene",
            "nodes" : [
                13
            ]
        }
    ],
    "nodes" : [
        {
            "mesh" : 0,
            "name" : "Cube_0"
        },
        {
            "mesh" : 1,
            "name" : "Cube_1"
        },
        {
            "mesh" : 2,
            "name" : "Cube_2"
        },
        {
            "mesh" : 3,
            "name" : "Cube_3"
        },
        {
            "mesh" : 4,
            "name" : "Cube_4"
        },
        {
            "mesh" : 5,
            "name" : "Cube_5"
        },
        {
            "mesh" : 6,
            "name" : "Cube_6"
        },
        {
            "mesh" : 7,
            "name" : "Cube_7"
        },
        {
            "children" : [
                0,
                1,
                2,
                3,
                4,
                5,
                6,
                7
            ],
            "name" : "Cube",
            "translation" : [
                0,
                0,
                1.172860026359558
            ]
        },
        {
            "name" : "Lamp.001"
        },
        {
            "children" : [
                9
            ],
            "name" : "Lamp",
            "rotation" : [
                -0.2995489239692688,
                -0.3184278905391693,
                0.8379096388816833,
                0.3267746567726135
            ],
            "scale" : [
                0.999997615814209,
                1,
                1.0000032186508179
            ],
            "translation" : [
                -6.15625,
                -3.4115500450134277,
                5.024980068206787
            ]
        },
        {
            "children" : [
                8,
                10
            ],
            "name" : "Root"
        },
        {
            "children" : [
                11
            ],
            "name" : "RootNode (model correction matrix)"
        },
        {
            "children" : [
                12
            ],
            "name" : "RootNode (gltf orientation matrix)",
            "rotation" : [
                -0.5,
                0.5000000596046448,
                0.5000000596046448,
                0.5
            ]
        }
    ],
    "materials" : [
        {
            "doubleSided" : true,
            "emissiveFactor" : [
                0,
                0,
                0
            ],
            "name" : "Material.005",
            "pbrMetallicRoughness" : {
                "baseColorFactor" : [
                    0.2817411422729492,
                    1,
                    0.5335835218429565,
                    1
                ],
                "metallicFactor" : 0.5046969652175903,
                "roughnessFactor" : 0.6000000238418579
            }
        },
        {
            "doubleSided" : true,
            "emissiveFactor" : [
                0,
                0,
                0
            ],
            "name" : "Material.006",
            "pbrMetallicRoughness" : {
                "baseColorFactor" : [
                    1,
                    0.5407106280326843,
                    0.138475239276886,
                    1
                ],
                "metallicFactor" : 0.21984849870204926,
                "roughnessFactor" : 0.6000000238418579
            }
        },
        {
            "doubleSided" : true,
            "emissiveFactor" : [
                0,
                0,
                0
            ],
            "name" : "Material.007",
            "pbrMetallicRoughness" : {
                "baseColorFactor" : [
                    0.3701707422733307,
                    0.4176383316516876,
                    0.42191120982170105,
                    1
                ],
                "metallicFactor" : 0.32893940806388855,
                "roughnessFactor" : 0.6000000238418579
            }
        },
        {
            "doubleSided" : true,
            "emissiveFactor" : [
                0,
                0,
                0
            ],
            "name" : "Material.008",
            "pbrMetallicRoughness" : {
                "baseColorFactor" : [
                    0.7499464154243469,
                    0.7070977687835693,
                    0.6418154239654541,
                    1
                ],
                "metallicFactor" : 0.165303036570549,
                "roughnessFactor" : 0.6000000238418579
            }
        },
        {
            "doubleSided" : true,
            "emissiveFactor" : [
                0,
                0,
                0
            ],
            "name" : "Material.009",
            "pbrMetallicRoughness" : {
                "baseColorFactor" : [
                    0.8000000715255737,
                    0.006159881595522165,
                    0.11872541904449463,
                    1
                ],
                "metallicFactor" : 0,
                "roughnessFactor" : 0.6000000238418579
            }
        },
        {
            "doubleSided" : true,
            "emissiveFactor" : [
                0,
                0,
                0
            ],
            "name" : "material",
            "pbrMetallicRoughness" : {
                "baseColorFactor" : [
                    0.06921419501304626,
                    0.04466630890965462,
                    0.49692195653915405,
                    1
                ],
                "metallicFactor" : 0,
                "roughnessFactor" : 0.6000000238418579
            }
        },
        {
            "doubleSided" : true,
            "emissiveFactor" : [
                0,
                0,
                0
            ],
            "name" : "Material.010",
            "pbrMetallicRoughness" : {
                "baseColorFactor" : [
                    0,
                    0.8000000715255737,
                    0.12925489246845245,
                    1
                ],
                "metallicFactor" : 0.6016666889190674,
                "roughnessFactor" : 0.4000000059604645
            }
        },
        {
            "doubleSided" : true,
            "emissiveFactor" : [
                0,
                0,
                0
            ],
            "name" : "Material.011",
            "pbrMetallicRoughness" : {
                "baseColorFactor" : [
                    1,
                    1,
                    1,
                    1
                ],
                "metallicFactor" : 0,
                "roughnessFactor" : 0.6000000238418579
            }
        }
    ],
    "meshes" : [
        {
            "name" : "Cube_0.001",
            "primitives" : [
                {
                    "attributes" : {
                        "POSITION" : 0,
                        "NORMAL" : 1
                    },
                    "indices" : 2,
                    "material" : 0
                }
            ]
        },
        {
            "name" : "Cube_1",
            "primitives" : [
                {
                    "attributes" : {
                        "POSITION" : 3,
                        "NORMAL" : 4
                    },
                    "indices" : 5,
                    "material" : 1
                }
            ]
        },
        {
            "name" : "Cube_2",
            "primitives" : [
                {
                    "attributes" : {
                        "POSITION" : 6,
                        "NORMAL" : 7
                    },
                    "indices" : 8,
                    "material" : 2
                }
            ]
        },
        {
            "name" : "Cube_3",
            "primitives" : [
                {
                    "attributes" : {
                        "POSITION" : 9,
                        "NORMAL" : 10
                    },
                    "indices" : 11,
                    "material" : 3
                }
            ]
        },
        {
            "name" : "Cube_4",
            "primitives" : [
                {
                    "attributes" : {
                        "POSITION" : 12,
                        "NORMAL" : 13
                    },
                    "indices" : 14,
                    "material" : 4
                }
            ]
        },
        {
            "name" : "Cube_5",
            "primitives" : [
                {
                    "attributes" : {
                        "POSITION" : 15,
                        "NORMAL" : 16
                    },
                    "indices" : 17,
                    "material" : 5
                }
            ]
        },
        {
            "name" : "Cube_6",
            "primitives" : [
                {
                    "attributes" : {
                        "POSITION" : 18,
                        "NORMAL" : 19
                    },
                    "indices" : 20,
                    "material" : 6
                }
            ]
        },
        {
            "name" : "Cube_7",
            "primitives" : [
                {
                    "attributes" : {
                        "POSITION" : 21,
                        "NORMAL" : 22
                    },
                    "indices" : 23,
                    "material" : 7
                }
            ]
        }
    ],
    "accessors" : [
        {
            "bufferView" : 0,
            "componentType" : 5126,
            "count" : 208,
            "max" : [
                1,
                1.0286200046539307,
                -0.24225999414920807
            ],
            "min" : [
                -1.0044699907302856,
                -1,
                -1.0024299621582031
            ],
            "type" : "VEC3"
        },
        {
            "bufferView" : 1,
            "componentType" : 5126,
            "count" : 208,
            "type" : "VEC3"
        },
        {
            "bufferView" : 2,
            "componentType" : 5123,
            "count" : 450,
            "type" : "SCALAR"
        },
        {
            "bufferView" : 3,
            "componentType" : 5126,
            "count" : 994,
            "max" : [
                17.211679458618164,
                5.124189853668213,
                0.2215700000524521
            ],
            "min" : [
                -0.8672699928283691,
                -0.7777799963951111,
                -0.6541200280189514
            ],
            "type" : "VEC3"
        },
        {
            "bufferView" : 4,
            "componentType" : 5126,
            "count" : 994,
            "type" : "VEC3"
        },
        {
            "bufferView" : 5,
            "componentType" : 5123,
            "count" : 1020,
            "type" : "SCALAR"
        },
        {
            "bufferView" : 6,
            "componentType" : 5126,
            "count" : 330,
            "max" : [
                1,
                1.0286200046539307,
                -0.24225999414920807
            ],
            "min" : [
                -1.0044699907302856,
                -1.0286200046539307,
                -1.0024299621582031
            ],
            "type" : "VEC3"
        },
        {
            "bufferView" : 7,
            "componentType" : 5126,
            "count" : 330,
            "type" : "VEC3"
        },
        {
            "bufferView" : 8,
            "componentType" : 5123,
            "count" : 570,
            "type" : "SCALAR"
        },
        {
            "bufferView" : 9,
            "componentType" : 5126,
            "count" : 30538,
            "max" : [
                14.55597972869873,
                8.668450355529785,
                0.9320200085639954
            ],
            "min" : [
                0.4454300105571747,
                -1.2791800498962402,
                -1.167639970779419
            ],
            "type" : "VEC3"
        },
        {
            "bufferView" : 10,
            "componentType" : 5126,
            "count" : 30538,
            "type" : "VEC3"
        },
        {
            "bufferView" : 11,
            "componentType" : 5123,
            "count" : 43464,
            "type" : "SCALAR"
        },
        {
            "bufferView" : 12,
            "componentType" : 5126,
            "count" : 2944,
            "max" : [
                4.047379970550537,
                4.385059833526611,
                -0.47999998927116394
            ],
            "min" : [
                1.2927700281143188,
                3.6268699169158936,
                -0.7947800159454346
            ],
            "type" : "VEC3"
        },
        {
            "bufferView" : 13,
            "componentType" : 5126,
            "count" : 2944,
            "type" : "VEC3"
        },
        {
            "bufferView" : 14,
            "componentType" : 5123,
            "count" : 4188,
            "type" : "SCALAR"
        },
        {
            "bufferView" : 15,
            "componentType" : 5126,
            "count" : 2316,
            "max" : [
                3.9932401180267334,
                4.406879901885986,
                -0.370059996843338
            ],
            "min" : [
                1.3641999959945679,
                3.5649099349975586,
                -0.8334699869155884
            ],
            "type" : "VEC3"
        },
        {
            "bufferView" : 16,
            "componentType" : 5126,
            "count" : 2316,
            "type" : "VEC3"
        },
        {
            "bufferView" : 17,
            "componentType" : 5123,
            "count" : 3108,
            "type" : "SCALAR"
        },
        {
            "bufferView" : 18,
            "componentType" : 5126,
            "count" : 3584,
            "max" : [
                4.013889789581299,
                4.3672099113464355,
                -0.34797999262809753
            ],
            "min" : [
                1.2592400312423706,
                3.48078989982605,
                -0.6485300064086914
            ],
            "type" : "VEC3"
        },
        {
            "bufferView" : 19,
            "componentType" : 5126,
            "count" : 3584,
            "type" : "VEC3"
        },
        {
            "bufferView" : 20,
            "componentType" : 5123,
            "count" : 5028,
            "type" : "SCALAR"
        },
        {
            "bufferView" : 21,
            "componentType" : 5126,
            "count" : 3918,
            "max" : [
                4.007420063018799,
                4.427549839019775,
                -0.39219000935554504
            ],
            "min" : [
                1.395050048828125,
                3.3658599853515625,
                -0.6981499791145325
            ],
            "type" : "VEC3"
        },
        {
            "bufferView" : 22,
            "componentType" : 5126,
            "count" : 3918,
            "type" : "VEC3"
        },
        {
            "bufferView" : 23,
            "componentType" : 5123,
            "count" : 5508,
            "type" : "SCALAR"
        }
    ],
    "bufferViews" : [
        {
            "buffer" : 0,
            "byteLength" : 2496,
            "byteOffset" : 0
        },
        {
            "buffer" : 0,
            "byteLength" : 2496,
            "byteOffset" : 2496
        },
        {
            "buffer" : 0,
            "byteLength" : 900,
            "byteOffset" : 4992
        },
        {
            "buffer" : 0,
            "byteLength" : 11928,
            "byteOffset" : 5892
        },
        {
            "buffer" : 0,
            "byteLength" : 11928,
            "byteOffset" : 17820
        },
        {
            "buffer" : 0,
            "byteLength" : 2040,
            "byteOffset" : 29748
        },
        {
            "buffer" : 0,
            "byteLength" : 3960,
            "byteOffset" : 31788
        },
        {
            "buffer" : 0,
            "byteLength" : 3960,
            "byteOffset" : 35748
        },
        {
            "buffer" : 0,
            "byteLength" : 1140,
            "byteOffset" : 39708
        },
        {
            "buffer" : 0,
            "byteLength" : 366456,
            "byteOffset" : 40848
        },
        {
            "buffer" : 0,
            "byteLength" : 366456,
            "byteOffset" : 407304
        },
        {
            "buffer" : 0,
            "byteLength" : 86928,
            "byteOffset" : 773760
        },
        {
            "buffer" : 0,
            "byteLength" : 35328,
            "byteOffset" : 860688
        },
        {
            "buffer" : 0,
            "byteLength" : 35328,
            "byteOffset" : 896016
        },
        {
            "buffer" : 0,
            "byteLength" : 8376,
            "byteOffset" : 931344
        },
        {
            "buffer" : 0,
            "byteLength" : 27792,
            "byteOffset" : 939720
        },
        {
            "buffer" : 0,
            "byteLength" : 27792,
            "byteOffset" : 967512
        },
        {
            "buffer" : 0,
            "byteLength" : 6216,
            "byteOffset" : 995304
        },
        {
            "buffer" : 0,
            "byteLength" : 43008,
            "byteOffset" : 1001520
        },
        {
            "buffer" : 0,
            "byteLength" : 43008,
            "byteOffset" : 1044528
        },
        {
            "buffer" : 0,
            "byteLength" : 10056,
            "byteOffset" : 1087536
        },
        {
            "buffer" : 0,
            "byteLength" : 47016,
            "byteOffset" : 1097592
        },
        {
            "buffer" : 0,
            "byteLength" : 47016,
            "byteOffset" : 1144608
        },
        {
            "buffer" : 0,
            "byteLength" : 11016,
            "byteOffset" : 1191624
        }
    ],
    "buffers" : [
        {
            "byteLength" : 1202640,
            "uri" : "data:application/octet-stream;base64,"
        }
    ]
}
