{
    "asset" : {
        "generator" : "Khronos glTF Blender I/O v1.3.48",
        "version" : "2.0"
    },
    "scene" : 0,
    "scenes" : [
        {
            "name" : "Scene",
            "nodes" : [
                11
            ]
        }
    ],
    "nodes" : [
        {
            "mesh" : 0,
            "name" : "Mesh_0.004"
        },
        {
            "mesh" : 1,
            "name" : "Mesh_1.003"
        },
        {
            "mesh" : 2,
            "name" : "Mesh_2.003"
        },
        {
            "mesh" : 3,
            "name" : "Mesh_3.002"
        },
        {
            "mesh" : 4,
            "name" : "Mesh_4.002"
        },
        {
            "mesh" : 5,
            "name" : "Mesh_5.002"
        },
        {
            "mesh" : 6,
            "name" : "Mesh_6.002"
        },
        {
            "mesh" : 7,
            "name" : "Mesh_7.002"
        },
        {
            "mesh" : 8,
            "name" : "Mesh_8.002"
        },
        {
            "children" : [
                0,
                1,
                2,
                3,
                4,
                5,
                6,
                7,
                8
            ],
            "name" : "vitrina con cristales.obj.cleaner.materialmerger.gles"
        },
        {
            "children" : [
                9
            ],
            "name" : "RootNode (model correction matrix)"
        },
        {
            "children" : [
                10
            ],
            "name" : "RootNode (gltf orientation matrix)",
            "rotation" : [
                -0.7071068286895752,
                0,
                0,
                0.7071068286895752
            ],
            "scale" : [
                0.031058892607688904,
                0.031058892607688904,
                0.031058892607688904
            ],
            "translation" : [
                0,
                11.411870956420898,
                0
            ]
        }
    ],
    "materials" : [
        {
            "doubleSided" : true,
            "emissiveFactor" : [
                0,
                0,
                0
            ],
            "name" : "1841212",
            "pbrMetallicRoughness" : {
                "baseColorFactor" : [
                    0.7215690016746521,
                    0.04705899953842163,
                    0.04705899953842163,
                    1
                ],
                "metallicFactor" : 0,
                "roughnessFactor" : 0.8928965926170349
            }
        },
        {
            "alphaMode" : "BLEND",
            "doubleSided" : true,
            "emissiveFactor" : [
                0,
                0,
                0
            ],
            "name" : "1617174",
            "pbrMetallicRoughness" : {
                "baseColorFactor" : [
                    0.5520114302635193,
                    0.5520114302635193,
                    0.5520114302635193,
                    0.03073069639503956
                ],
                "metallicFactor" : 0,
                "roughnessFactor" : 0.4376586675643921
            }
        },
        {
            "doubleSided" : true,
            "emissiveFactor" : [
                0,
                0,
                0
            ],
            "name" : "19000",
            "pbrMetallicRoughness" : {
                "baseColorFactor" : [
                    0.7450979948043823,
                    0,
                    0,
                    1
                ],
                "metallicFactor" : 0,
                "roughnessFactor" : 0.9109207391738892
            }
        },
        {
            "doubleSided" : true,
            "emissiveFactor" : [
                0,
                0,
                0
            ],
            "name" : "19000_1",
            "pbrMetallicRoughness" : {
                "baseColorFactor" : [
                    0.7450979948043823,
                    0,
                    0,
                    1
                ],
                "metallicFactor" : 0,
                "roughnessFactor" : 0.9109207391738892
            }
        },
        {
            "doubleSided" : true,
            "emissiveFactor" : [
                0,
                0,
                0
            ],
            "name" : "190188186",
            "pbrMetallicRoughness" : {
                "baseColorFactor" : [
                    0.7450979948043823,
                    0.7372549772262573,
                    0.7294120192527771,
                    1
                ],
                "metallicFactor" : 0,
                "roughnessFactor" : 0.5847918391227722
            }
        },
        {
            "doubleSided" : true,
            "emissiveFactor" : [
                0,
                0,
                0
            ],
            "name" : "2212550",
            "pbrMetallicRoughness" : {
                "baseColorFactor" : [
                    0.8666669726371765,
                    1,
                    0,
                    1
                ],
                "metallicFactor" : 0,
                "roughnessFactor" : 1
            }
        },
        {
            "alphaMode" : "BLEND",
            "doubleSided" : true,
            "emissiveFactor" : [
                0,
                0,
                0
            ],
            "name" : "229229229",
            "pbrMetallicRoughness" : {
                "baseColorFactor" : [
                    0.8980389833450317,
                    0.8980389833450317,
                    0.8980389833450317,
                    0.4000000059604645
                ],
                "metallicFactor" : 0,
                "roughnessFactor" : 1
            }
        },
        {
            "alphaMode" : "BLEND",
            "doubleSided" : true,
            "emissiveFactor" : [
                0,
                0,
                0
            ],
            "name" : "236241239",
            "pbrMetallicRoughness" : {
                "baseColorFactor" : [
                    0.4671613872051239,
                    0.46949502825737,
                    0.4685642123222351,
                    0.12823103368282318
                ],
                "metallicFactor" : 0,
                "roughnessFactor" : 0.4376586675643921
            }
        },
        {
            "doubleSided" : true,
            "emissiveFactor" : [
                0,
                0,
                0
            ],
            "name" : "2382550",
            "pbrMetallicRoughness" : {
                "baseColorFactor" : [
                    0.9333329796791077,
                    1,
                    0,
                    1
                ],
                "metallicFactor" : 0,
                "roughnessFactor" : 1
            }
        }
    ],
    "meshes" : [
        {
            "name" : "Mesh_0.004",
            "primitives" : [
                {
                    "attributes" : {
                        "POSITION" : 0,
                        "NORMAL" : 1,
                        "TEXCOORD_0" : 2
                    },
                    "indices" : 3,
                    "material" : 0
                }
            ]
        },
        {
            "name" : "Mesh_1.003",
            "primitives" : [
                {
                    "attributes" : {
                        "POSITION" : 4,
                        "NORMAL" : 5,
                        "TEXCOORD_0" : 6
                    },
                    "indices" : 7,
                    "material" : 1
                }
            ]
        },
        {
            "name" : "Mesh_2.003",
            "primitives" : [
                {
                    "attributes" : {
                        "POSITION" : 8,
                        "NORMAL" : 9,
                        "TEXCOORD_0" : 10
                    },
                    "indices" : 11,
                    "material" : 2
                }
            ]
        },
        {
            "name" : "Mesh_3.002",
            "primitives" : [
                {
                    "attributes" : {
                        "POSITION" : 12,
                        "NORMAL" : 13,
                        "TEXCOORD_0" : 14
                    },
                    "indices" : 15,
                    "material" : 3
                }
            ]
        },
        {
            "name" : "Mesh_4.002",
            "primitives" : [
                {
                    "attributes" : {
                        "POSITION" : 16,
                        "NORMAL" : 17,
                        "TEXCOORD_0" : 18
                    },
                    "indices" : 19,
                    "material" : 4
                }
            ]
        },
        {
            "name" : "Mesh_5.002",
            "primitives" : [
                {
                    "attributes" : {
                        "POSITION" : 20,
                        "NORMAL" : 21,
                        "TEXCOORD_0" : 22
                    },
                    "indices" : 23,
                    "material" : 5
                }
            ]
        },
        {
            "name" : "Mesh_6.002",
            "primitives" : [
                {
                    "attributes" : {
                        "POSITION" : 24,
                        "NORMAL" : 25,
                        "TEXCOORD_0" : 26
                    },
                    "indices" : 27,
                    "material" : 6
                }
            ]
        },
        {
            "name" : "Mesh_7.002",
            "primitives" : [
                {
                    "attributes" : {
                        "POSITION" : 28,
                        "NORMAL" : 29,
                        "TEXCOORD_0" : 30
                    },
                    "indices" : 31,
                    "material" : 7
                }
            ]
        },
        {
            "name" : "Mesh_8.002",
            "primitives" : [
                {
                    "attributes" : {
                        "POSITION" : 32,
                        "NORMAL" : 33,
                        "TEXCOORD_0" : 34
                    },
                    "indices" : 35,
                    "material" : 8
                }
            ]
        }
    ],
    "accessors" : [
        {
            "bufferView" : 0,
            "componentType" : 5126,
            "count" : 24,
            "max" : [
                345.0481872558594,
                1144.3526611328125,
                0.4287559986114502
            ],
            "min" : [
                325.9981689453125,
                -1607.54736328125,
                -18.621244430541992
            ],
            "type" : "VEC3"
        },
        {
            "bufferView" : 1,
            "componentType" : 5126,
            "count" : 24,
            "type" : "VEC3"
        },
        {
            "bufferView" : 2,
            "componentType" : 5126,
            "count" : 24,
            "type" : "VEC2"
        },
        {
            "bufferView" : 3,
            "componentType" : 5123,
            "count" : 36,
            "type" : "SCALAR"
        },
        {
            "bufferView" : 4,
            "componentType" : 5126,
            "count" : 56,
            "max" : [
                325.9981689453125,
                1148.4625244140625,
                334.5537414550781
            ],
            "min" : [
                -215.9018096923828,
                -1607.54736328125,
                -9.0967435836792
            ],
            "type" : "VEC3"
        },
        {
            "bufferView" : 5,
            "componentType" : 5126,
            "count" : 56,
            "type" : "VEC3"
        },
        {
            "bufferView" : 6,
            "componentType" : 5126,
            "count" : 56,
            "type" : "VEC2"
        },
        {
            "bufferView" : 7,
            "componentType" : 5123,
            "count" : 84,
            "type" : "SCALAR"
        },
        {
            "bufferView" : 8,
            "componentType" : 5126,
            "count" : 396,
            "max" : [
                345.0481872558594,
                1163.4027099609375,
                340.90374755859375
            ],
            "min" : [
                -234.9518280029297,
                -1626.5972900390625,
                -359.09625244140625
            ],
            "type" : "VEC3"
        },
        {
            "bufferView" : 9,
            "componentType" : 5126,
            "count" : 396,
            "type" : "VEC3"
        },
        {
            "bufferView" : 10,
            "componentType" : 5126,
            "count" : 396,
            "type" : "VEC2"
        },
        {
            "bufferView" : 11,
            "componentType" : 5123,
            "count" : 540,
            "type" : "SCALAR"
        },
        {
            "bufferView" : 12,
            "componentType" : 5126,
            "count" : 151,
            "max" : [
                325.9981689453125,
                1163.4027099609375,
                321.853759765625
            ],
            "min" : [
                -215.90184020996094,
                -1626.5972900390625,
                -359.09625244140625
            ],
            "type" : "VEC3"
        },
        {
            "bufferView" : 13,
            "componentType" : 5126,
            "count" : 151,
            "type" : "VEC3"
        },
        {
            "bufferView" : 14,
            "componentType" : 5126,
            "count" : 151,
            "type" : "VEC2"
        },
        {
            "bufferView" : 15,
            "componentType" : 5123,
            "count" : 216,
            "type" : "SCALAR"
        },
        {
            "bufferView" : 16,
            "componentType" : 5126,
            "count" : 1312,
            "max" : [
                345.0481872558594,
                1163.4027099609375,
                331.3787536621094
            ],
            "min" : [
                -215.90184020996094,
                -1626.5972900390625,
                -340.0462341308594
            ],
            "type" : "VEC3"
        },
        {
            "bufferView" : 17,
            "componentType" : 5126,
            "count" : 1312,
            "type" : "VEC3"
        },
        {
            "bufferView" : 18,
            "componentType" : 5126,
            "count" : 1312,
            "type" : "VEC2"
        },
        {
            "bufferView" : 19,
            "componentType" : 5123,
            "count" : 1728,
            "type" : "SCALAR"
        },
        {
            "bufferView" : 20,
            "componentType" : 5126,
            "count" : 157,
            "max" : [
                325.9981689453125,
                1144.3526611328125,
                0.4287559986114502
            ],
            "min" : [
                -196.85182189941406,
                -1607.54736328125,
                -5.921244144439697
            ],
            "type" : "VEC3"
        },
        {
            "bufferView" : 21,
            "componentType" : 5126,
            "count" : 157,
            "type" : "VEC3"
        },
        {
            "bufferView" : 22,
            "componentType" : 5126,
            "count" : 157,
            "type" : "VEC2"
        },
        {
            "bufferView" : 23,
            "componentType" : 5123,
            "count" : 192,
            "type" : "SCALAR"
        },
        {
            "bufferView" : 24,
            "componentType" : 5126,
            "count" : 40,
            "max" : [
                325.9981689453125,
                1148.4625244140625,
                334.5537414550781
            ],
            "min" : [
                -215.9018096923828,
                -1607.54736328125,
                331.3787536621094
            ],
            "type" : "VEC3"
        },
        {
            "bufferView" : 25,
            "componentType" : 5126,
            "count" : 40,
            "type" : "VEC3"
        },
        {
            "bufferView" : 26,
            "componentType" : 5126,
            "count" : 40,
            "type" : "VEC2"
        },
        {
            "bufferView" : 27,
            "componentType" : 5123,
            "count" : 60,
            "type" : "SCALAR"
        },
        {
            "bufferView" : 28,
            "componentType" : 5126,
            "count" : 208,
            "max" : [
                338.5231628417969,
                1157.877685546875,
                321.853759765625
            ],
            "min" : [
                -215.9018096923828,
                -1617.0723876953125,
                -340.0462646484375
            ],
            "type" : "VEC3"
        },
        {
            "bufferView" : 29,
            "componentType" : 5126,
            "count" : 208,
            "type" : "VEC3"
        },
        {
            "bufferView" : 30,
            "componentType" : 5126,
            "count" : 208,
            "type" : "VEC2"
        },
        {
            "bufferView" : 31,
            "componentType" : 5123,
            "count" : 288,
            "type" : "SCALAR"
        },
        {
            "bufferView" : 32,
            "componentType" : 5126,
            "count" : 144,
            "max" : [
                325.9981689453125,
                1146.3526611328125,
                340.90374755859375
            ],
            "min" : [
                -215.9018096923828,
                -1607.54736328125,
                334.5537414550781
            ],
            "type" : "VEC3"
        },
        {
            "bufferView" : 33,
            "componentType" : 5126,
            "count" : 144,
            "type" : "VEC3"
        },
        {
            "bufferView" : 34,
            "componentType" : 5126,
            "count" : 144,
            "type" : "VEC2"
        },
        {
            "bufferView" : 35,
            "componentType" : 5123,
            "count" : 192,
            "type" : "SCALAR"
        }
    ],
    "bufferViews" : [
        {
            "buffer" : 0,
            "byteLength" : 288,
            "byteOffset" : 0
        },
        {
            "buffer" : 0,
            "byteLength" : 288,
            "byteOffset" : 288
        },
        {
            "buffer" : 0,
            "byteLength" : 192,
            "byteOffset" : 576
        },
        {
            "buffer" : 0,
            "byteLength" : 72,
            "byteOffset" : 768
        },
        {
            "buffer" : 0,
            "byteLength" : 672,
            "byteOffset" : 840
        },
        {
            "buffer" : 0,
            "byteLength" : 672,
            "byteOffset" : 1512
        },
        {
            "buffer" : 0,
            "byteLength" : 448,
            "byteOffset" : 2184
        },
        {
            "buffer" : 0,
            "byteLength" : 168,
            "byteOffset" : 2632
        },
        {
            "buffer" : 0,
            "byteLength" : 4752,
            "byteOffset" : 2800
        },
        {
            "buffer" : 0,
            "byteLength" : 4752,
            "byteOffset" : 7552
        },
        {
            "buffer" : 0,
            "byteLength" : 3168,
            "byteOffset" : 12304
        },
        {
            "buffer" : 0,
            "byteLength" : 1080,
            "byteOffset" : 15472
        },
        {
            "buffer" : 0,
            "byteLength" : 1812,
            "byteOffset" : 16552
        },
        {
            "buffer" : 0,
            "byteLength" : 1812,
            "byteOffset" : 18364
        },
        {
            "buffer" : 0,
            "byteLength" : 1208,
            "byteOffset" : 20176
        },
        {
            "buffer" : 0,
            "byteLength" : 432,
            "byteOffset" : 21384
        },
        {
            "buffer" : 0,
            "byteLength" : 15744,
            "byteOffset" : 21816
        },
        {
            "buffer" : 0,
            "byteLength" : 15744,
            "byteOffset" : 37560
        },
        {
            "buffer" : 0,
            "byteLength" : 10496,
            "byteOffset" : 53304
        },
        {
            "buffer" : 0,
            "byteLength" : 3456,
            "byteOffset" : 63800
        },
        {
            "buffer" : 0,
            "byteLength" : 1884,
            "byteOffset" : 67256
        },
        {
            "buffer" : 0,
            "byteLength" : 1884,
            "byteOffset" : 69140
        },
        {
            "buffer" : 0,
            "byteLength" : 1256,
            "byteOffset" : 71024
        },
        {
            "buffer" : 0,
            "byteLength" : 384,
            "byteOffset" : 72280
        },
        {
            "buffer" : 0,
            "byteLength" : 480,
            "byteOffset" : 72664
        },
        {
            "buffer" : 0,
            "byteLength" : 480,
            "byteOffset" : 73144
        },
        {
            "buffer" : 0,
            "byteLength" : 320,
            "byteOffset" : 73624
        },
        {
            "buffer" : 0,
            "byteLength" : 120,
            "byteOffset" : 73944
        },
        {
            "buffer" : 0,
            "byteLength" : 2496,
            "byteOffset" : 74064
        },
        {
            "buffer" : 0,
            "byteLength" : 2496,
            "byteOffset" : 76560
        },
        {
            "buffer" : 0,
            "byteLength" : 1664,
            "byteOffset" : 79056
        },
        {
            "buffer" : 0,
            "byteLength" : 576,
            "byteOffset" : 80720
        },
        {
            "buffer" : 0,
            "byteLength" : 1728,
            "byteOffset" : 81296
        },
        {
            "buffer" : 0,
            "byteLength" : 1728,
            "byteOffset" : 83024
        },
        {
            "buffer" : 0,
            "byteLength" : 1152,
            "byteOffset" : 84752
        },
        {
            "buffer" : 0,
            "byteLength" : 384,
            "byteOffset" : 85904
        }
    ],
    "buffers" : [
        {
            "byteLength" : 86288,
            "uri" : "data:application/octet-stream;base64,"
        }
    ]
}
